<svg viewBox="0 0 1156.178 1141.622" fill="none" stroke-linecap="square" stroke-miterlimit="10" xmlns="http://www.w3.org/2000/svg"><clipPath id="a"><path d="M0 0h1156.178v1141.622H0V0z"/></clipPath><g clip-path="url(#a)"><path fill="none" d="M0 0h1156.178v1141.622H0z"/><path fill="#f3f3f3" d="M35.33 509.537c0-22.763 18.454-41.217 41.218-41.217h996.936a41.217 41.217 0 0141.217 41.217v557.188c0 22.764-18.454 41.217-41.217 41.217H76.548c-22.764 0-41.217-18.453-41.217-41.217z" fill-rule="evenodd"/><path stroke="#999" stroke-width="4" stroke-linejoin="round" stroke-linecap="butt" stroke-dasharray="16.0,12.0" d="M35.33 509.537h0c0-22.763 18.454-41.217 41.218-41.217h996.936a41.217 41.217 0 0141.217 41.217v557.188c0 22.764-18.454 41.217-41.217 41.217H76.548h0c-22.764 0-41.217-18.453-41.217-41.217z"/><path fill="#2c3e50" d="M69.778 782.778q-.313-.375-.844-.719-.531-.343-1.203-.625-.672-.28-1.453-.453-.781-.172-1.64-.172-2.204 0-3.235.828-1.031.813-1.031 2.266 0 .766.296 1.281.297.5.922.86t1.547.625q.938.265 2.219.562 1.469.313 2.656.735 1.188.406 2.016 1.03.844.61 1.281 1.485.453.875.453 2.156 0 1.36-.547 2.36-.53 1-1.453 1.656-.906.656-2.172.969-1.25.297-2.703.297-2.187 0-4.156-.672-1.953-.688-3.563-2l1.157-2.016q.422.453 1.093.906.688.454 1.547.813.875.36 1.875.594 1 .218 2.094.218 2.031 0 3.14-.718 1.126-.719 1.126-2.157 0-.812-.36-1.359-.36-.547-1.062-.937-.688-.407-1.719-.704-1.016-.312-2.328-.64-1.438-.344-2.531-.735-1.094-.406-1.828-.968-.735-.563-1.11-1.36-.36-.797-.36-1.922 0-1.359.5-2.39.5-1.047 1.407-1.766.906-.719 2.156-1.078 1.266-.36 2.735-.36 1.906 0 3.453.594 1.547.579 2.75 1.563l-1.125 1.953zm10.905 15.219q-1.562 0-2.875-.563-1.312-.578-2.25-1.562-.922-1-1.453-2.313-.515-1.312-.515-2.78 0-1.47.515-2.767.531-1.312 1.469-2.296.953-1 2.25-1.563 1.312-.578 2.89-.578 1.579 0 2.86.594 1.297.578 2.203 1.562.906.969 1.39 2.266.5 1.281.5 2.672 0 .297-.015.531-.016.234-.031.375H76.074q.078 1.031.469 1.89.406.86 1.047 1.47.64.609 1.453.952.812.344 1.718.344.641 0 1.25-.172.625-.172 1.157-.453.53-.297.937-.719.422-.437.64-.968l2.016.562q-.343.766-.953 1.406-.593.641-1.375 1.11-.781.469-1.75.734-.953.266-2 .266zm4.782-8.156q-.094-.985-.5-1.829-.407-.843-1.047-1.421-.625-.594-1.453-.922-.813-.328-1.75-.328-.938 0-1.766.328-.828.328-1.453.937-.625.594-1.016 1.422-.375.828-.453 1.813h9.438zm12.175-3.97q-1.765.048-3.11.907-1.343.844-1.905 2.375v8.578H90.28V783.81h2.187v3.235q.72-1.438 1.891-2.328 1.172-.907 2.516-1h.437q.188 0 .328.015v2.14zm6.348 11.86l-5.5-13.922h2.438l4.39 11.875 4.422-11.875h2.25l-5.5 13.922h-2.5zm15.986.266q-1.562 0-2.875-.563-1.312-.578-2.25-1.562-.922-1-1.453-2.313-.515-1.312-.515-2.78 0-1.47.515-2.767.531-1.312 1.469-2.296.953-1 2.25-1.563 1.312-.578 2.89-.578 1.579 0 2.86.594 1.297.578 2.203 1.562.906.969 1.39 2.266.5 1.281.5 2.672 0 .297-.015.531-.016.234-.031.375h-11.547q.078 1.031.469 1.89.406.86 1.047 1.47.64.609 1.453.952.812.344 1.718.344.641 0 1.25-.172.625-.172 1.157-.453.53-.297.937-.719.422-.437.64-.968l2.016.562q-.343.766-.953 1.406-.593.641-1.375 1.11-.781.469-1.75.734-.953.266-2 .266zm4.782-8.156q-.094-.985-.5-1.829-.407-.843-1.047-1.421-.625-.594-1.453-.922-.813-.328-1.75-.328-.938 0-1.766.328-.828.328-1.453.937-.625.594-1.016 1.422-.375.828-.453 1.813h9.438zm12.175-3.97q-1.765.048-3.11.907-1.343.844-1.905 2.375v8.578h-2.344V783.81h2.187v3.235q.72-1.438 1.89-2.328 1.173-.907 2.517-1h.437q.188 0 .328.015v2.14z"/><path fill="none" d="M202.816 521.525c0-16.342 13.249-29.59 29.591-29.59h753.07a29.591 29.591 0 0129.591 29.59v118.362c0 16.342-13.248 29.59-29.59 29.59h-753.07c-16.343 0-29.592-13.248-29.592-29.59z"/><path stroke="#f0f" stroke-width="2" stroke-linejoin="round" stroke-linecap="butt" stroke-dasharray="8.0,6.0" d="M202.816 521.525h0c0-16.342 13.249-29.59 29.591-29.59h753.07a29.591 29.591 0 0129.591 29.59v118.362c0 16.342-13.248 29.59-29.59 29.59h-753.07c-16.343 0-29.592-13.248-29.592-29.59z"/><path fill="#2c3e50" d="M236.39 573.51h-6.516v16.796h-2.406v-16.797h-6.532v-2.125h15.453v2.125zm7.55 4.937q-1.766.047-3.11.906-1.343.844-1.906 2.375v8.578h-2.343v-13.922h2.187v3.235q.719-1.438 1.89-2.329 1.173-.906 2.516-1h.438q.187 0 .328.016v2.14zm5.895 12.125q-.984 0-1.844-.328-.86-.344-1.484-.922-.625-.594-.984-1.375-.36-.782-.36-1.72 0-.952.422-1.733.438-.797 1.219-1.36.781-.562 1.86-.875 1.093-.328 2.359-.328 1.015 0 2.046.188 1.047.187 1.86.515v-1.125q0-1.703-.969-2.672-.953-.984-2.719-.984-2.11 0-4.422 1.625l-.78-1.516q2.702-1.812 5.421-1.812 2.75 0 4.281 1.469 1.532 1.468 1.532 4.125v5.687q0 .828.734.844v2.031l-.61.078q-.234.031-.5.031-.703 0-1.109-.406-.406-.422-.5-1.015l-.047-.985q-.937 1.25-2.36 1.906-1.421.657-3.046.657zm.61-1.766q1.25 0 2.328-.453 1.078-.469 1.64-1.25.516-.5.516-1.031v-2.063q-1.719-.656-3.547-.656-1.766 0-2.875.75-1.11.734-1.11 1.937 0 .594.22 1.094.234.5.64.875.422.375.984.594.563.203 1.203.203zm22.658 1.5h-2.344v-7.781q0-2.235-.688-3.25-.672-1.016-2.062-1.016-.719 0-1.438.281-.718.282-1.36.766-.64.469-1.124 1.14-.469.657-.719 1.47v8.39h-2.344v-13.922h2.141v3q.813-1.469 2.375-2.344 1.563-.89 3.406-.89 1.203 0 2 .437.797.438 1.266 1.235.484.78.687 1.859.204 1.063.204 2.313v8.312zm8.524.266q-1.672 0-3.297-.516-1.625-.516-2.797-1.516l1-1.562q1.234.922 2.453 1.39 1.234.47 2.594.47 1.515 0 2.406-.594.89-.61.89-1.704 0-.5-.234-.859-.234-.36-.719-.625-.484-.266-1.234-.469-.734-.218-1.719-.468-1.265-.313-2.172-.61-.906-.297-1.5-.687-.578-.407-.843-.97-.266-.562-.266-1.39 0-1.031.406-1.843.422-.813 1.14-1.36.72-.547 1.688-.828.985-.281 2.094-.281 1.578 0 2.938.515 1.359.5 2.297 1.329l-1.063 1.406q-.89-.766-1.984-1.156-1.094-.391-2.235-.391-1.281 0-2.172.547-.89.547-.89 1.75 0 .484.172.812.172.313.562.547.406.235 1.031.422.625.188 1.516.406 1.375.313 2.406.657 1.032.328 1.703.78.688.454 1.016 1.079.328.61.328 1.484 0 1.938-1.5 3.094-1.484 1.14-4.015 1.14zm15.793 0q-1.735 0-3.063-.844-1.312-.86-2.094-2.172v8.422h-2.343v-19.594h2.078v2.625q.828-1.281 2.14-2.062 1.329-.797 2.922-.797 1.438 0 2.64.594 1.204.578 2.08 1.578.89 1 1.374 2.312.5 1.297.5 2.719 0 1.484-.453 2.812-.453 1.313-1.281 2.297-.828.969-1.985 1.547-1.14.563-2.515.563zm-.735-2.032q1.047 0 1.875-.437.844-.438 1.438-1.172.61-.734.922-1.656.328-.938.328-1.922 0-1.047-.375-1.984-.375-.954-1.016-1.657-.625-.703-1.5-1.11-.86-.421-1.875-.421-.64 0-1.328.25-.672.25-1.281.672-.594.406-1.031.984-.438.563-.579 1.203v3.985q.297.687.75 1.297.454.593 1.032 1.03.593.438 1.25.688.672.25 1.39.25zm15.92 2.032q-1.579 0-2.875-.578-1.282-.594-2.204-1.579-.921-.984-1.437-2.28-.5-1.313-.5-2.766 0-1.454.516-2.766.53-1.313 1.453-2.297.922-.984 2.203-1.562 1.297-.594 2.844-.594 1.546 0 2.843.594 1.313.578 2.235 1.562.922.984 1.437 2.297.516 1.312.516 2.766 0 1.453-.5 2.765-.5 1.297-1.438 2.281-.937.985-2.234 1.579-1.281.578-2.86.578zm-4.61-7.172q0 1.094.36 2.031.359.938.984 1.625.625.688 1.469 1.094.843.39 1.797.39.968 0 1.796-.39.844-.406 1.485-1.11.64-.703 1-1.64.36-.953.36-2.047 0-1.078-.36-2.016-.36-.953-1-1.656t-1.485-1.094q-.828-.406-1.796-.406-.954 0-1.797.422-.844.406-1.469 1.11-.625.702-.984 1.656-.36.937-.36 2.03zm21.858-4.953q-1.766.047-3.11.906-1.343.844-1.906 2.375v8.578h-2.343v-13.922h2.187v3.235q.719-1.438 1.89-2.329 1.173-.906 2.516-1h.438q.187 0 .328.016v2.14zm9.52 11.172q-.219.093-.563.25-.343.14-.797.296-.437.141-.953.235-.515.094-1.078.094-1.281 0-2.219-.704-.921-.703-.921-2.203v-9.36h-1.891v-1.843h1.89v-4.625h2.344v4.625h3.125v1.844h-3.125v8.64q.047.766.5 1.126.453.343 1.078.343.688 0 1.25-.218.579-.235.797-.375l.563 1.875zm7.055.953q-1.672 0-3.297-.516-1.625-.516-2.797-1.516l1-1.562q1.234.922 2.453 1.39 1.234.47 2.594.47 1.515 0 2.406-.594.89-.61.89-1.704 0-.5-.234-.859-.234-.36-.718-.625-.485-.266-1.235-.469-.734-.218-1.719-.468-1.265-.313-2.171-.61-.907-.297-1.5-.687-.579-.407-.844-.97-.266-.562-.266-1.39 0-1.031.406-1.843.422-.813 1.141-1.36.719-.547 1.688-.828.984-.281 2.093-.281 1.578 0 2.938.515 1.36.5 2.297 1.329l-1.063 1.406q-.89-.766-1.984-1.156-1.094-.391-2.235-.391-1.28 0-2.171.547-.891.547-.891 1.75 0 .484.172.812.172.313.562.547.407.235 1.032.422.625.188 1.515.406 1.375.313 2.406.657 1.032.328 1.704.78.687.454 1.015 1.079.328.61.328 1.484 0 1.938-1.5 3.094-1.484 1.14-4.015 1.14z"/><path fill="#d513a5" d="M465.234 540.477c0-11.22 9.095-20.315 20.315-20.315h196.44a20.315 20.315 0 0120.315 20.315v81.26c0 11.22-9.095 20.315-20.315 20.315H485.55c-11.22 0-20.315-9.096-20.315-20.316z" fill-rule="evenodd"/><path fill="#fff" d="M552.914 590.707v-18.922h8.11q1.25 0 2.297.516 1.062.515 1.812 1.39.766.86 1.188 1.938.421 1.078.421 2.203 0 .984-.28 1.906-.266.922-.798 1.672-.515.734-1.25 1.281-.734.532-1.64.766l4.593 7.25h-2.718l-4.328-6.797h-5v6.797h-2.407zm2.407-8.938h5.718q.75 0 1.344-.312.61-.313 1.031-.86.422-.546.657-1.265.25-.734.25-1.5 0-.797-.282-1.5-.28-.719-.75-1.266-.453-.547-1.093-.843-.625-.313-1.313-.313h-5.562v7.86zm27.95 6.813v2.125h-12.844v-18.922h12.61v2.125h-10.203v6.14h8.875v2h-8.875v6.532h10.437zm14.393-12.828q-.313-.375-.844-.719-.531-.344-1.203-.625t-1.453-.453q-.781-.172-1.64-.172-2.204 0-3.235.828-1.031.813-1.031 2.266 0 .765.296 1.281.297.5.922.86.625.359 1.547.624.938.266 2.219.563 1.469.312 2.656.734 1.188.407 2.016 1.032.844.609 1.281 1.484.453.875.453 2.156 0 1.36-.547 2.36-.53 1-1.453 1.656-.906.656-2.172.969-1.25.296-2.703.296-2.187 0-4.156-.671-1.953-.688-3.563-2l1.157-2.016q.422.453 1.093.906.688.453 1.547.813.875.359 1.875.593 1 .22 2.094.22 2.031 0 3.14-.72 1.126-.718 1.126-2.156 0-.812-.36-1.36-.36-.546-1.062-.937-.688-.406-1.719-.703-1.016-.312-2.328-.64-1.438-.344-2.531-.735-1.094-.406-1.828-.969-.735-.562-1.11-1.359-.36-.797-.36-1.922 0-1.36.5-2.39.5-1.047 1.407-1.766.906-.719 2.156-1.078 1.266-.36 2.735-.36 1.906 0 3.453.594 1.547.578 2.75 1.563l-1.125 1.953zm18.765-1.844h-6.516v16.797h-2.406V573.91h-6.531v-2.125h15.453v2.125z"/><path fill="#d513a5" d="M736.48 540.477c0-11.22 9.096-20.315 20.316-20.315h196.44a20.315 20.315 0 0120.315 20.315v81.26c0 11.22-9.095 20.315-20.315 20.315h-196.44c-11.22 0-20.316-9.096-20.316-20.316z" fill-rule="evenodd"/><path fill="#fff" d="M787.103 571.894h2.266l2.5 6.579 2.531-6.579h2.266l-3.282 8.235 3.25 7.812 6.407-16.156h2.609l-7.922 18.922h-2.078l-3.75-8.938-3.797 8.938h-2.078l-7.89-18.922h2.593l6.422 16.156 3.219-7.812-3.266-8.235zm24.993 19.079q-1.563 0-2.875-.563-1.313-.578-2.25-1.562-.922-1-1.453-2.313-.516-1.312-.516-2.781t.516-2.766q.531-1.312 1.469-2.297.953-1 2.25-1.562 1.312-.578 2.89-.578t2.86.593q1.296.579 2.203 1.563.906.969 1.39 2.266.5 1.28.5 2.671 0 .297-.015.532-.016.234-.032.375h-11.546q.078 1.03.468 1.89.407.86 1.047 1.469.64.61 1.453.953.813.344 1.719.344.64 0 1.25-.172.625-.172 1.156-.453.532-.297.938-.719.422-.437.64-.969l2.016.563q-.344.766-.953 1.406-.594.64-1.375 1.11-.781.468-1.75.734-.953.266-2 .266zm4.781-8.157q-.094-.984-.5-1.828-.406-.844-1.047-1.422-.625-.593-1.453-.922-.812-.328-1.75-.328-.937 0-1.765.328-.829.329-1.454.938-.625.594-1.015 1.422-.375.828-.453 1.812h9.437zm11.957 8.157q-1.625 0-2.953-.797-1.328-.797-2.11-2.078v2.609h-2.078v-19.453h2.344v8.312q.89-1.36 2.156-2.187 1.282-.828 3-.828 1.438 0 2.579.625 1.14.609 1.953 1.609.812 1 1.25 2.313.453 1.312.453 2.703 0 1.468-.516 2.78-.5 1.298-1.39 2.282-.875.969-2.094 1.547-1.203.563-2.594.563zm-.578-2.032q1.031 0 1.906-.422.89-.421 1.531-1.14.641-.719.985-1.64.344-.923.344-1.938 0-1.016-.329-1.953-.328-.954-.937-1.672-.594-.72-1.438-1.157-.843-.437-1.859-.437-.734 0-1.406.266-.672.265-1.25.703-.563.437-1 1.03-.438.579-.766 1.25v4.032q.14.656.578 1.219.438.562 1.032.984.609.407 1.28.64.688.235 1.329.235zm14.92 2.032q-1.673 0-3.298-.516t-2.797-1.516l1-1.562q1.235.922 2.454 1.39 1.234.47 2.593.47 1.516 0 2.407-.595.89-.609.89-1.703 0-.5-.234-.86-.235-.358-.719-.624t-1.234-.469q-.735-.219-1.72-.469-1.265-.312-2.171-.609-.906-.297-1.5-.687-.578-.407-.844-.97-.265-.562-.265-1.39 0-1.031.406-1.844.422-.812 1.14-1.359.72-.547 1.688-.828.984-.281 2.094-.281 1.578 0 2.937.515 1.36.5 2.297 1.328l-1.062 1.407q-.891-.766-1.985-1.157-1.093-.39-2.234-.39-1.281 0-2.172.547-.89.547-.89 1.75 0 .484.171.812.172.313.563.547.406.234 1.031.422.625.187 1.516.406 1.375.313 2.406.656 1.031.329 1.703.782.688.453 1.016 1.078.328.61.328 1.484 0 1.938-1.5 3.094-1.485 1.14-4.016 1.14zm14.37 0q-1.578 0-2.875-.579-1.28-.593-2.203-1.578-.922-.984-1.437-2.281-.5-1.312-.5-2.766 0-1.453.515-2.765.532-1.313 1.454-2.297.921-.984 2.203-1.563 1.297-.593 2.843-.593 1.547 0 2.844.593 1.313.579 2.235 1.563.921.984 1.437 2.297.516 1.312.516 2.765 0 1.454-.5 2.766-.5 1.297-1.438 2.281-.937.985-2.234 1.578-1.281.579-2.86.579zm-4.609-7.172q0 1.093.36 2.03.359.938.984 1.626.625.687 1.469 1.094.843.39 1.796.39.97 0 1.797-.39.844-.407 1.485-1.11.64-.703 1-1.64.36-.953.36-2.047 0-1.078-.36-2.016-.36-.953-1-1.656t-1.485-1.094q-.828-.406-1.797-.406-.953 0-1.796.422-.844.406-1.47 1.11-.624.702-.984 1.655-.359.938-.359 2.032zm13.56-.078q0-1.47.5-2.766.516-1.313 1.454-2.281.937-.985 2.219-1.547 1.297-.578 2.906-.578 2.078 0 3.578.922 1.5.921 2.281 2.468l-2.297.719q-.53-.984-1.5-1.531-.953-.547-2.125-.547-.953 0-1.812.39-.86.376-1.469 1.079-.61.687-.969 1.625-.359.922-.359 2.047 0 1.093.375 2.062.375.953 1 1.656t1.453 1.11q.844.39 1.813.39.61 0 1.203-.172.61-.171 1.094-.453.5-.297.875-.687.375-.39.53-.844l2.298.703q-.328.766-.907 1.406-.562.641-1.343 1.094-.766.453-1.719.719-.938.266-1.984.266-1.563 0-2.875-.579-1.313-.593-2.25-1.578-.922-.984-1.454-2.297-.515-1.328-.515-2.796zm25.518 6.984l-4.796-6.797-2.672 2.5v4.297h-2.344v-19.453h2.344v12.797l7.14-7.235h2.594l-5.547 5.766 5.813 8.125h-2.532zm9.992.266q-1.563 0-2.875-.563-1.313-.578-2.25-1.562-.922-1-1.453-2.313-.516-1.312-.516-2.781t.516-2.766q.53-1.312 1.468-2.297.954-1 2.25-1.562 1.313-.578 2.891-.578t2.86.593q1.296.579 2.203 1.563.906.969 1.39 2.266.5 1.28.5 2.671 0 .297-.015.532-.016.234-.032.375h-11.547q.079 1.03.47 1.89.405.86 1.046 1.469.64.61 1.453.953.813.344 1.719.344.64 0 1.25-.172.625-.172 1.156-.453.531-.297.938-.719.422-.437.64-.969l2.016.563q-.344.766-.953 1.406-.594.64-1.375 1.11-.781.468-1.75.734-.953.266-2 .266zm4.781-8.157q-.094-.984-.5-1.828-.406-.844-1.047-1.422-.625-.593-1.453-.922-.812-.328-1.75-.328-.937 0-1.766.328-.828.329-1.453.938-.625.594-1.015 1.422-.375.828-.453 1.812h9.437zm11.886 7.203q-.219.094-.562.25-.344.141-.797.297-.438.14-.953.235-.516.093-1.078.093-1.282 0-2.22-.703-.921-.703-.921-2.203v-9.36h-1.89v-1.843h1.89v-4.625h2.344v4.625h3.125v1.844h-3.125v8.64q.047.766.5 1.125.453.344 1.078.344.687 0 1.25-.219.578-.234.797-.375l.562 1.875zm7.055.954q-1.672 0-3.297-.516-1.625-.516-2.797-1.516l1-1.562q1.235.922 2.453 1.39 1.235.47 2.594.47 1.516 0 2.406-.595.89-.609.89-1.703 0-.5-.233-.86-.235-.358-.72-.624-.484-.266-1.234-.469-.734-.219-1.718-.469-1.266-.312-2.172-.609-.906-.297-1.5-.687-.578-.407-.844-.97-.266-.562-.266-1.39 0-1.031.407-1.844.422-.812 1.14-1.359.72-.547 1.688-.828.984-.281 2.094-.281 1.578 0 2.937.515 1.36.5 2.297 1.328l-1.063 1.407q-.89-.766-1.984-1.157-1.094-.39-2.234-.39-1.282 0-2.172.547-.89.547-.89 1.75 0 .484.171.812.172.313.563.547.406.234 1.03.422.626.187 1.516.406 1.375.313 2.407.656 1.03.329 1.703.782.687.453 1.015 1.078.329.61.329 1.484 0 1.938-1.5 3.094-1.485 1.14-4.016 1.14z"/><path fill="#f3f3f3" d="M35.339 283.758c0-16.343 13.248-29.591 29.59-29.591h1020.189a29.591 29.591 0 0129.59 29.59V402.12c0 16.343-13.248 29.59-29.59 29.59H64.93c-16.343 0-29.591-13.247-29.591-29.59z" fill-rule="evenodd"/><path stroke="#7b7bdb" stroke-width="4" stroke-linejoin="round" stroke-linecap="butt" stroke-dasharray="16.0,12.0" d="M35.339 283.758h0c0-16.343 13.248-29.591 29.59-29.591h1020.189a29.591 29.591 0 0129.59 29.59V402.12c0 16.343-13.248 29.59-29.59 29.59H64.93h0c-16.343 0-29.591-13.247-29.591-29.59z"/><path fill="#2c3e50" d="M54.052 342.945q0-1.704.594-3.391.594-1.703 1.75-3.047 1.172-1.344 2.844-2.172 1.687-.828 3.812-.828 2.532 0 4.344 1.156 1.813 1.141 2.703 2.97l-1.906 1.233q-.422-.906-1.031-1.515-.594-.625-1.297-.985-.703-.375-1.453-.53-.75-.173-1.469-.173-1.562 0-2.781.657-1.219.656-2.047 1.703-.813 1.047-1.234 2.375-.407 1.312-.407 2.656 0 1.484.485 2.844.5 1.343 1.375 2.39.875 1.032 2.078 1.641 1.203.61 2.61.61.75 0 1.53-.188.797-.188 1.516-.594.719-.422 1.344-1.047.625-.625 1.031-1.5l2 1.094q-.453 1.062-1.266 1.875-.812.812-1.843 1.375-1.032.562-2.172.86-1.14.28-2.235.28-1.953 0-3.578-.843-1.625-.86-2.812-2.235-1.188-1.375-1.844-3.109-.64-1.75-.64-3.562zm25.102 9.859q-1.578 0-2.875-.578-1.281-.594-2.203-1.578-.922-.985-1.438-2.282-.5-1.312-.5-2.765t.516-2.766q.531-1.312 1.453-2.297.922-.984 2.203-1.562 1.297-.594 2.844-.594t2.844.594q1.312.578 2.234 1.562.922.985 1.437 2.297.516 1.313.516 2.766t-.5 2.765q-.5 1.297-1.437 2.282-.938.984-2.235 1.578-1.281.578-2.86.578zm-4.61-7.172q0 1.094.36 2.031.36.938.984 1.625.625.688 1.469 1.094.844.39 1.797.39.969 0 1.797-.39.843-.406 1.484-1.11.64-.702 1-1.64.36-.953.36-2.047 0-1.078-.36-2.015-.36-.954-1-1.657-.64-.703-1.484-1.093-.828-.407-1.797-.407-.953 0-1.797.422-.844.406-1.469 1.11-.625.703-.984 1.656-.36.937-.36 2.031zm21.858-4.953q-1.766.047-3.11.906-1.343.844-1.906 2.375v8.578h-2.343v-13.922h2.187v3.235q.719-1.438 1.89-2.328 1.173-.907 2.516-1h.438q.187 0 .328.015v2.141zm8.153 12.125q-1.562 0-2.875-.563-1.312-.578-2.25-1.562-.922-1-1.453-2.313-.516-1.312-.516-2.78 0-1.47.516-2.766.531-1.313 1.469-2.297.953-1 2.25-1.563 1.312-.578 2.89-.578t2.86.594q1.297.578 2.203 1.562.906.97 1.39 2.266.5 1.281.5 2.672 0 .297-.015.531-.016.234-.031.375H99.946q.078 1.031.468 1.89.407.86 1.047 1.47.641.609 1.453.953.813.343 1.72.343.64 0 1.25-.172.624-.171 1.155-.453.532-.297.938-.718.422-.438.64-.97l2.016.563q-.344.766-.953 1.407-.594.64-1.375 1.109t-1.75.734q-.953.266-2 .266zm4.781-8.156q-.093-.985-.5-1.828-.406-.844-1.047-1.422-.625-.594-1.453-.922-.812-.328-1.75-.328-.937 0-1.765.328-.828.328-1.453.937-.625.594-1.016 1.422-.375.828-.453 1.813h9.437z"/><path fill="#7b7bdb" d="M204.126 302.31c0-11.22 9.095-20.315 20.315-20.315h196.44a20.315 20.315 0 0120.316 20.315v81.26c0 11.219-9.096 20.315-20.316 20.315h-196.44c-11.22 0-20.315-9.096-20.315-20.316z" fill-rule="evenodd"/><path fill="#fff" d="M300.655 333.618v18.922h-2.39v-8.61h-10.423v8.61h-2.406v-18.922h2.406v8.172h10.422v-8.172h2.39zm9.996 19.187q-1.578 0-2.875-.578-1.28-.594-2.203-1.578-.922-.984-1.437-2.281-.5-1.313-.5-2.766t.515-2.765q.532-1.313 1.453-2.297.922-.985 2.204-1.563 1.296-.594 2.843-.594t2.844.594q1.313.578 2.234 1.563.922.984 1.438 2.297.516 1.312.516 2.765t-.5 2.766q-.5 1.297-1.438 2.281-.937.984-2.234 1.578-1.282.578-2.86.578zm-4.609-7.172q0 1.094.36 2.032.359.937.984 1.625.625.687 1.468 1.093.844.391 1.797.391.97 0 1.797-.39.844-.407 1.485-1.11.64-.703 1-1.64.359-.954.359-2.047 0-1.079-.36-2.016-.359-.953-1-1.656-.64-.703-1.484-1.094-.828-.406-1.797-.406-.953 0-1.797.422-.843.406-1.468 1.109t-.985 1.656q-.359.938-.359 2.031zm20.576 7.172q-1.578 0-2.875-.578-1.28-.594-2.203-1.578-.922-.984-1.437-2.281-.5-1.313-.5-2.766t.515-2.765q.532-1.313 1.453-2.297.922-.985 2.204-1.563 1.296-.594 2.843-.594t2.844.594q1.313.578 2.234 1.563.922.984 1.438 2.297.516 1.312.516 2.765t-.5 2.766q-.5 1.297-1.438 2.281-.937.984-2.234 1.578-1.282.578-2.86.578zm-4.609-7.172q0 1.094.36 2.032.359.937.984 1.625.625.687 1.468 1.093.844.391 1.797.391.97 0 1.797-.39.844-.407 1.485-1.11.64-.703 1-1.64.359-.954.359-2.047 0-1.079-.36-2.016-.359-.953-1-1.656-.64-.703-1.484-1.094-.828-.406-1.797-.406-.953 0-1.797.422-.843.406-1.468 1.109t-.985 1.656q-.359.938-.359 2.031zm24.31 6.907l-4.796-6.797-2.672 2.5v4.297h-2.344v-19.453h2.344v12.796l7.14-7.234h2.594l-5.546 5.766 5.812 8.125h-2.531zm9.43.265q-1.67 0-3.296-.515-1.625-.516-2.797-1.516l1-1.562q1.235.921 2.453 1.39 1.235.469 2.594.469 1.516 0 2.406-.594.89-.61.89-1.703 0-.5-.233-.86-.235-.359-.72-.624-.484-.266-1.234-.47-.734-.218-1.718-.468-1.266-.312-2.172-.61-.906-.296-1.5-.687-.578-.406-.844-.968-.266-.563-.266-1.391 0-1.031.407-1.844.422-.812 1.14-1.36.72-.546 1.688-.827.984-.282 2.094-.282 1.578 0 2.937.516 1.36.5 2.297 1.328l-1.063 1.406q-.89-.765-1.984-1.156-1.094-.39-2.234-.39-1.282 0-2.172.546-.89.547-.89 1.75 0 .485.171.813.172.312.563.547.406.234 1.03.422.626.187 1.516.406 1.375.312 2.407.656 1.03.328 1.703.781.687.454 1.015 1.079.329.609.329 1.484 0 1.937-1.5 3.094-1.485 1.14-4.016 1.14z"/><path fill="none" d="M202.8 721.525c0-16.342 13.249-29.59 29.592-29.59h753.07a29.591 29.591 0 0129.59 29.59v118.362c0 16.342-13.248 29.59-29.59 29.59h-753.07c-16.343 0-29.591-13.248-29.591-29.59z"/><path stroke="#f0f" stroke-width="2" stroke-linejoin="round" stroke-linecap="butt" stroke-dasharray="8.0,6.0" d="M202.8 721.525h0c0-16.342 13.249-29.59 29.592-29.59h753.07a29.591 29.591 0 0129.59 29.59v118.362c0 16.342-13.248 29.59-29.59 29.59h-753.07c-16.343 0-29.591-13.248-29.591-29.59z"/><path fill="#2c3e50" d="M228.499 771.384h2.015l7.735 18.922h-2.563l-2.234-5.547h-7.953l-2.203 5.547h-2.563l7.766-18.922zm4.422 11.516l-3.422-8.75-3.516 8.75h6.938zm11.487 7.672q-2.188 0-3.313-1.47-1.109-1.468-1.109-4.374v-8.344h2.344v7.89q0 4.266 2.953 4.266 1.437 0 2.703-.906 1.266-.922 1.89-2.531v-8.719h2.344v11.047q0 .828.735.844v2.031q-.39.047-.625.063-.219.015-.438.015-.687 0-1.156-.406-.469-.422-.5-1.031l-.047-1.625q-.937 1.578-2.453 2.422-1.516.828-3.328.828zm18.926-.953q-.218.093-.562.25-.344.14-.797.296-.437.141-.953.235t-1.078.094q-1.281 0-2.219-.704-.922-.703-.922-2.203v-9.36h-1.89v-1.843h1.89v-4.625h2.344v4.625h3.125v1.844h-3.125v8.64q.047.766.5 1.126.453.343 1.078.343.688 0 1.25-.218.578-.235.797-.375l.562 1.875zm14.258.687h-2.343v-7.781q0-2.156-.75-3.203-.75-1.063-2.188-1.063-.687 0-1.39.281-.688.282-1.297.766-.594.469-1.063 1.14-.453.657-.703 1.47v8.39h-2.344v-19.453h2.344v8.531q.828-1.531 2.234-2.375 1.422-.86 3.094-.86 1.235 0 2.078.454.86.453 1.36 1.234.515.766.734 1.844.234 1.078.234 2.313v8.312zm9.806.266q-1.563 0-2.875-.563-1.313-.578-2.25-1.562-.922-1-1.453-2.313-.516-1.312-.516-2.781t.516-2.766q.53-1.312 1.468-2.297.953-1 2.25-1.562 1.313-.578 2.89-.578 1.58 0 2.86.594 1.297.578 2.203 1.562.907.969 1.391 2.266.5 1.28.5 2.672 0 .296-.016.53-.015.235-.03.376h-11.548q.078 1.031.47 1.89.405.86 1.046 1.47.64.609 1.453.952.813.344 1.719.344.64 0 1.25-.172.625-.172 1.156-.453.531-.297.938-.719.421-.437.64-.968l2.016.562q-.344.766-.953 1.406-.594.64-1.375 1.11-.782.468-1.75.734-.953.266-2 .266zm4.78-8.157q-.093-.984-.5-1.828-.405-.843-1.046-1.422-.625-.593-1.453-.921-.813-.329-1.75-.329-.938 0-1.766.329-.828.328-1.453.937-.625.594-1.015 1.422-.375.828-.454 1.812h9.438zm16.895 7.891h-2.343v-7.781q0-2.235-.688-3.25-.672-1.016-2.062-1.016-.72 0-1.438.281-.719.282-1.36.766-.64.469-1.124 1.14-.469.657-.719 1.47v8.39h-2.344v-13.922h2.14v3q.813-1.469 2.376-2.344 1.562-.89 3.406-.89 1.203 0 2 .437.797.438 1.266 1.235.484.78.687 1.859.203 1.063.203 2.313v8.312zm10.72-.687q-.22.093-.563.25-.344.14-.797.296-.438.141-.953.235-.516.094-1.079.094-1.28 0-2.218-.704-.922-.703-.922-2.203v-9.36h-1.89v-1.843h1.89v-4.625h2.344v4.625h3.125v1.844h-3.125v8.64q.046.766.5 1.126.453.343 1.078.343.687 0 1.25-.218.578-.235.797-.375l.562 1.875zm2.179.687v-13.922h2.344v13.922h-2.344zm0-16.531v-2.922h2.344v2.922h-2.344zm5.193 9.547q0-1.47.5-2.766.516-1.312 1.454-2.281.937-.985 2.218-1.547 1.297-.578 2.907-.578 2.078 0 3.578.922t2.28 2.468l-2.296.72q-.531-.985-1.5-1.532-.953-.547-2.125-.547-.953 0-1.812.39-.86.376-1.47 1.079-.609.687-.968 1.625-.36.922-.36 2.047 0 1.093.376 2.062.375.953 1 1.656.625.704 1.453 1.11.844.39 1.812.39.61 0 1.203-.171.61-.172 1.094-.454.5-.296.875-.687.375-.39.531-.844l2.297.703q-.328.766-.906 1.407-.562.64-1.344 1.093-.765.453-1.718.719-.938.266-1.985.266-1.562 0-2.875-.578-1.312-.594-2.25-1.579-.922-.984-1.453-2.296-.516-1.329-.516-2.797zm19.284 7.25q-.985 0-1.844-.328-.86-.344-1.485-.922-.625-.594-.984-1.375-.36-.782-.36-1.72 0-.952.423-1.733.437-.797 1.218-1.36.782-.562 1.86-.875 1.093-.328 2.359-.328 1.016 0 2.047.188 1.047.187 1.86.515v-1.125q0-1.703-.97-2.672-.953-.984-2.718-.984-2.11 0-4.422 1.625l-.781-1.516q2.703-1.812 5.422-1.812 2.75 0 4.28 1.469 1.532 1.468 1.532 4.125v5.687q0 .828.734.844v2.031q-.359.047-.609.078-.234.031-.5.031-.703 0-1.11-.406-.406-.422-.5-1.015l-.046-.985q-.938 1.25-2.36 1.906-1.421.657-3.046.657zm.609-1.766q1.25 0 2.328-.453 1.078-.469 1.64-1.25.516-.5.516-1.031v-2.063q-1.718-.656-3.547-.656-1.765 0-2.875.75-1.109.734-1.109 1.937 0 .594.219 1.094.234.5.64.875.422.375.985.594.562.203 1.203.203zm17.676.813q-.218.093-.562.25-.344.14-.797.296-.438.141-.953.235-.516.094-1.078.094-1.282 0-2.219-.704-.922-.703-.922-2.203v-9.36h-1.89v-1.843h1.89v-4.625h2.344v4.625h3.125v1.844h-3.125v8.64q.047.766.5 1.126.453.343 1.078.343.687 0 1.25-.218.578-.235.797-.375l.562 1.875zm2.18.687v-13.922h2.344v13.922h-2.344zm0-16.531v-2.922h2.344v2.922h-2.344zm12.21 16.797q-1.579 0-2.876-.578-1.281-.594-2.203-1.579-.922-.984-1.437-2.28-.5-1.313-.5-2.766 0-1.454.515-2.766.531-1.313 1.453-2.297.922-.984 2.203-1.562 1.297-.594 2.844-.594t2.844.594q1.312.578 2.234 1.562.922.984 1.438 2.297.515 1.312.515 2.766 0 1.453-.5 2.765-.5 1.297-1.437 2.281-.938.985-2.234 1.579-1.282.578-2.86.578zm-4.61-7.172q0 1.094.36 2.031.359.938.984 1.625.625.688 1.468 1.094.844.39 1.797.39.969 0 1.797-.39.844-.406 1.484-1.11.641-.703 1-1.64.36-.953.36-2.047 0-1.078-.36-2.016-.359-.953-1-1.656-.64-.703-1.484-1.094-.828-.406-1.797-.406-.953 0-1.797.422-.843.406-1.468 1.11-.625.702-.985 1.656-.36.937-.36 2.03zm26.576 6.906h-2.343v-7.781q0-2.235-.688-3.25-.672-1.016-2.062-1.016-.72 0-1.438.281-.719.282-1.36.766-.64.469-1.124 1.14-.47.657-.72 1.47v8.39h-2.343v-13.922h2.14v3q.813-1.469 2.376-2.344 1.562-.89 3.406-.89 1.203 0 2 .437.797.438 1.266 1.235.484.78.687 1.859.203 1.063.203 2.313v8.312z"/><path fill="#d513a5" d="M465.234 742.563c0-11.22 9.095-20.316 20.315-20.316h196.44a20.315 20.315 0 0120.315 20.316v81.259c0 11.22-9.095 20.315-20.315 20.315H485.55c-11.22 0-20.315-9.095-20.315-20.315z" fill-rule="evenodd"/><path fill="#fff" d="M550.882 777.84q-.312-.376-.843-.72-.532-.343-1.204-.625-.671-.28-1.453-.453-.78-.172-1.64-.172-2.203 0-3.235.828-1.03.813-1.03 2.266 0 .766.296 1.281.297.5.922.86t1.547.625q.937.265 2.218.562 1.47.313 2.657.735 1.187.406 2.015 1.03.844.61 1.282 1.485.453.875.453 2.156 0 1.36-.547 2.36-.531 1-1.453 1.656-.907.656-2.172.969-1.25.297-2.703.297-2.188 0-4.157-.672-1.953-.688-3.562-2l1.156-2.016q.422.453 1.094.906.687.454 1.547.813.875.36 1.875.594 1 .218 2.094.218 2.03 0 3.14-.718 1.125-.72 1.125-2.157 0-.812-.36-1.359-.359-.547-1.062-.937-.687-.407-1.718-.704-1.016-.312-2.329-.64-1.437-.344-2.53-.735-1.095-.406-1.829-.968-.734-.563-1.11-1.36-.359-.797-.359-1.922 0-1.359.5-2.39.5-1.047 1.407-1.766.906-.719 2.156-1.078 1.265-.36 2.734-.36 1.906 0 3.453.594 1.547.579 2.75 1.563l-1.125 1.953zm10.906 15.218q-1.563 0-2.875-.563-1.313-.578-2.25-1.562-.922-1-1.453-2.313-.516-1.312-.516-2.78 0-1.47.516-2.767.53-1.312 1.468-2.296.954-1 2.25-1.563 1.313-.578 2.891-.578t2.86.594q1.296.578 2.203 1.562.906.969 1.39 2.266.5 1.281.5 2.672 0 .297-.015.53-.016.235-.032.376h-11.547q.079 1.031.47 1.89.405.86 1.046 1.47.64.609 1.453.952.813.344 1.719.344.64 0 1.25-.172.625-.172 1.156-.453.531-.297.938-.719.422-.437.64-.968l2.016.562q-.344.766-.953 1.406-.594.641-1.375 1.11-.781.469-1.75.734-.953.266-2 .266zm4.781-8.156q-.094-.985-.5-1.829-.406-.843-1.047-1.421-.625-.594-1.453-.922-.812-.328-1.75-.328-.937 0-1.766.328-.828.328-1.453.937-.625.594-1.015 1.422-.375.828-.453 1.813h9.437zm12.176-3.97q-1.766.048-3.11.907-1.343.844-1.906 2.375v8.578h-2.344V778.87h2.188v3.235q.719-1.438 1.89-2.328 1.172-.907 2.516-1h.438q.187 0 .328.015v2.14zm6.348 11.86l-5.5-13.922h2.437l4.39 11.875 4.423-11.875h2.25l-5.5 13.922h-2.5zm10.31 0V778.87h2.343v13.922h-2.343zm0-16.531v-2.922h2.343v2.922h-2.343zm5.193 9.547q0-1.469.5-2.766.516-1.312 1.453-2.281.938-.984 2.219-1.547 1.297-.578 2.906-.578 2.078 0 3.578.922t2.281 2.469l-2.296.718q-.532-.984-1.5-1.53-.954-.548-2.125-.548-.954 0-1.813.39-.86.376-1.469 1.079-.61.687-.968 1.625-.36.922-.36 2.047 0 1.094.375 2.062.375.953 1 1.657.625.703 1.453 1.109.844.39 1.813.39.61 0 1.203-.171.61-.172 1.094-.453.5-.297.875-.688.375-.39.53-.844l2.298.703q-.328.766-.906 1.407-.563.64-1.344 1.093-.766.454-1.719.72-.937.265-1.984.265-1.563 0-2.875-.578-1.313-.594-2.25-1.578-.922-.985-1.453-2.297-.516-1.328-.516-2.797zm21.728 7.25q-1.563 0-2.875-.563-1.313-.578-2.25-1.562-.922-1-1.453-2.313-.516-1.312-.516-2.78 0-1.47.516-2.767.531-1.312 1.468-2.296.954-1 2.25-1.563 1.313-.578 2.891-.578t2.86.594q1.296.578 2.203 1.562.906.969 1.39 2.266.5 1.281.5 2.672 0 .297-.015.53-.016.235-.032.376h-11.547q.079 1.031.47 1.89.405.86 1.046 1.47.64.609 1.453.952.813.344 1.719.344.64 0 1.25-.172.625-.172 1.156-.453.531-.297.938-.719.422-.437.64-.968l2.016.562q-.344.766-.953 1.406-.594.641-1.375 1.11-.781.469-1.75.734-.953.266-2 .266zm4.781-8.156q-.094-.985-.5-1.829-.406-.843-1.047-1.421-.625-.594-1.453-.922-.812-.328-1.75-.328-.937 0-1.766.328-.828.328-1.453.937-.625.594-1.015 1.422-.375.828-.453 1.813h9.437z"/><path fill="#d513a5" d="M736.48 742.563c0-11.22 9.096-20.316 20.316-20.316h196.44a20.315 20.315 0 0120.315 20.316v81.259c0 11.22-9.095 20.315-20.315 20.315h-196.44c-11.22 0-20.316-9.095-20.316-20.315z" fill-rule="evenodd"/><path fill="#fff" d="M805.23 777.84q-.313-.376-.845-.72-.53-.343-1.203-.625-.672-.28-1.453-.453-.781-.172-1.64-.172-2.204 0-3.235.828-1.031.813-1.031 2.266 0 .766.297 1.281.297.5.922.86t1.546.625q.938.265 2.22.562 1.468.313 2.655.735 1.188.406 2.016 1.03.844.61 1.281 1.485.453.875.453 2.156 0 1.36-.546 2.36-.532 1-1.454 1.656-.906.656-2.171.969-1.25.297-2.704.297-2.187 0-4.156-.672-1.953-.688-3.562-2l1.156-2.016q.422.453 1.094.906.687.454 1.547.813.875.36 1.875.594 1 .218 2.093.218 2.032 0 3.141-.718 1.125-.72 1.125-2.157 0-.812-.36-1.359-.359-.547-1.062-.937-.687-.407-1.719-.704-1.015-.312-2.328-.64-1.437-.344-2.531-.735-1.094-.406-1.828-.968-.735-.563-1.11-1.36-.359-.797-.359-1.922 0-1.359.5-2.39.5-1.047 1.406-1.766.907-.719 2.157-1.078 1.265-.36 2.734-.36 1.906 0 3.453.594 1.547.579 2.75 1.563l-1.125 1.953zm11.685 14.265q-.219.093-.563.25-.343.14-.797.297-.437.14-.953.234-.515.094-1.078.094-1.281 0-2.219-.703-.921-.704-.921-2.204v-9.359h-1.891v-1.844h1.89v-4.625h2.344v4.625h3.125v1.844h-3.125v8.64q.047.766.5 1.126.453.343 1.078.343.688 0 1.25-.218.579-.235.797-.375l.563 1.875zm9.539-11.172q-1.766.047-3.11.906-1.343.844-1.906 2.375v8.578h-2.343V778.87h2.187v3.235q.719-1.438 1.89-2.328 1.173-.907 2.516-1h.438q.187 0 .328.015v2.14zm5.895 12.125q-.984 0-1.844-.328-.86-.344-1.484-.922-.625-.594-.985-1.375-.359-.781-.359-1.719 0-.953.422-1.734.437-.797 1.219-1.36.78-.562 1.859-.875 1.094-.328 2.36-.328 1.015 0 2.046.188 1.047.187 1.86.515v-1.125q0-1.703-.97-2.672-.952-.984-2.718-.984-2.11 0-4.422 1.625l-.781-1.516q2.703-1.812 5.422-1.812 2.75 0 4.281 1.469 1.531 1.468 1.531 4.125v5.687q0 .828.735.844v2.031l-.61.078q-.234.032-.5.032-.703 0-1.109-.407-.406-.422-.5-1.015l-.047-.985q-.937 1.25-2.36 1.907-1.421.656-3.046.656zm.61-1.766q1.25 0 2.327-.453 1.079-.469 1.641-1.25.516-.5.516-1.031v-2.063q-1.72-.656-3.547-.656-1.766 0-2.875.75-1.11.734-1.11 1.938 0 .593.22 1.093.234.5.64.875.422.375.984.594.563.203 1.203.203zm17.676.813q-.219.093-.563.25-.344.14-.797.297-.437.14-.953.234-.515.094-1.078.094-1.281 0-2.219-.703-.922-.704-.922-2.204v-9.359h-1.89v-1.844h1.89v-4.625h2.344v4.625h3.125v1.844h-3.125v8.64q.047.766.5 1.126.453.343 1.078.343.688 0 1.25-.218.578-.235.797-.375l.563 1.875zm8.15.953q-1.563 0-2.876-.563-1.312-.578-2.25-1.562-.922-1-1.453-2.313-.516-1.312-.516-2.78 0-1.47.516-2.767.531-1.312 1.469-2.296.953-1 2.25-1.563 1.312-.578 2.89-.578 1.579 0 2.86.594 1.297.578 2.203 1.562.906.969 1.39 2.266.5 1.281.5 2.672 0 .297-.015.53-.016.235-.031.376h-11.547q.078 1.031.469 1.89.406.86 1.046 1.47.641.609 1.454.952.812.344 1.718.344.64 0 1.25-.172.625-.172 1.157-.453.53-.297.937-.719.422-.437.64-.968l2.016.562q-.343.766-.953 1.406-.594.641-1.375 1.11-.781.469-1.75.734-.953.266-2 .266zm4.78-8.156q-.093-.985-.5-1.829-.406-.843-1.046-1.421-.625-.594-1.454-.922-.812-.328-1.75-.328-.937 0-1.765.328-.828.328-1.453.937-.625.594-1.016 1.422-.375.828-.453 1.813h9.437zm10.364 8.046q-1.407 0-2.594-.578-1.188-.593-2.047-1.578-.844-.984-1.313-2.265-.468-1.282-.468-2.672 0-1.453.468-2.766.47-1.328 1.313-2.312.86-1 2.047-1.563 1.187-.578 2.625-.578 1.75 0 3.031.86 1.281.843 2.156 2.156v-2.782h2.078v13.766q0 1.484-.562 2.61-.547 1.14-1.516 1.906-.953.78-2.25 1.171-1.297.407-2.75.407-2.375 0-3.86-.813-1.483-.812-2.468-2.25l1.36-1.203q.828 1.234 2.125 1.844 1.312.61 2.843.61.953 0 1.813-.266.875-.266 1.515-.797.641-.532 1.016-1.328.39-.797.39-1.891v-2.453q-.39.64-.937 1.156-.547.516-1.187.875-.64.36-1.36.547-.718.187-1.468.187zm.718-1.921q.75 0 1.438-.266.703-.266 1.281-.703.594-.438.984-1 .407-.563.532-1.14v-4q-.282-.72-.75-1.298-.47-.593-1.063-1.03-.578-.454-1.265-.688-.672-.235-1.375-.235-1.063 0-1.907.453-.828.453-1.422 1.203-.578.735-.906 1.688-.312.937-.312 1.906 0 1.031.36 1.969.374.937 1.015 1.64.64.688 1.5 1.094.875.407 1.89.407zm10.368 1.765V778.87h2.344v13.922h-2.344zm0-16.531v-2.922h2.344v2.922h-2.344zm12.287 16.797q-1.562 0-2.875-.563-1.312-.578-2.25-1.562-.922-1-1.453-2.313-.515-1.312-.515-2.78 0-1.47.515-2.767.531-1.312 1.469-2.296.953-1 2.25-1.563 1.312-.578 2.89-.578 1.579 0 2.86.594 1.297.578 2.203 1.562.906.969 1.39 2.266.5 1.281.5 2.672 0 .297-.015.53-.016.235-.031.376h-11.547q.078 1.031.469 1.89.406.86 1.047 1.47.64.609 1.453.952.812.344 1.718.344.641 0 1.25-.172.625-.172 1.157-.453.531-.297.937-.719.422-.437.64-.968l2.016.562q-.343.766-.953 1.406-.593.641-1.375 1.11-.78.469-1.75.734-.953.266-2 .266zm4.782-8.156q-.094-.985-.5-1.829-.407-.843-1.047-1.421-.625-.594-1.453-.922-.813-.328-1.75-.328-.938 0-1.766.328-.828.328-1.453.937-.625.594-1.016 1.422-.375.828-.453 1.813h9.438zm9.69 8.156q-1.671 0-3.296-.516-1.625-.515-2.797-1.515l1-1.563q1.235.922 2.453 1.39 1.235.47 2.594.47 1.516 0 2.406-.594.89-.61.89-1.703 0-.5-.233-.86-.235-.36-.72-.625-.484-.265-1.234-.469-.734-.218-1.718-.468-1.266-.313-2.172-.61-.906-.297-1.5-.687-.578-.406-.844-.969-.266-.562-.266-1.39 0-1.032.407-1.844.422-.813 1.14-1.36.719-.547 1.688-.828.984-.281 2.094-.281 1.578 0 2.937.516 1.36.5 2.297 1.328l-1.063 1.406q-.89-.766-1.984-1.156-1.094-.39-2.234-.39-1.282 0-2.172.546-.89.547-.89 1.75 0 .484.171.812.172.313.563.547.406.235 1.03.422.626.188 1.516.406 1.375.313 2.407.657 1.03.328 1.703.78.687.454 1.015 1.08.329.608.329 1.483 0 1.938-1.5 3.094-1.485 1.14-4.016 1.14z"/><path fill="#f3f3f3" d="M35.339 69.607c0-16.343 13.248-29.591 29.59-29.591h1020.189a29.591 29.591 0 0129.59 29.59v118.362c0 16.343-13.248 29.591-29.59 29.591H64.93c-16.343 0-29.591-13.248-29.591-29.591z" fill-rule="evenodd"/><path stroke="#3cf" stroke-width="4" stroke-linejoin="round" stroke-linecap="butt" stroke-dasharray="16.0,12.0" d="M35.339 69.607h0c0-16.343 13.248-29.591 29.59-29.591h1020.189a29.591 29.591 0 0129.59 29.59v118.362c0 16.343-13.248 29.591-29.59 29.591H64.93h0c-16.343 0-29.591-13.248-29.591-29.591z"/><path fill="#2c3e50" d="M54.052 128.794q0-1.703.594-3.391.594-1.703 1.75-3.047 1.172-1.344 2.844-2.172 1.687-.828 3.812-.828 2.532 0 4.344 1.156 1.813 1.141 2.703 2.97l-1.906 1.234q-.422-.907-1.031-1.516-.594-.625-1.297-.984-.703-.375-1.453-.532-.75-.172-1.469-.172-1.562 0-2.781.657-1.219.656-2.047 1.703-.813 1.047-1.234 2.375-.407 1.312-.407 2.656 0 1.484.485 2.844.5 1.344 1.375 2.39.875 1.032 2.078 1.641 1.203.61 2.61.61.75 0 1.53-.188.797-.188 1.516-.594.719-.422 1.344-1.047.625-.625 1.031-1.5l2 1.094q-.453 1.063-1.266 1.875-.812.813-1.843 1.375-1.032.563-2.172.86-1.14.28-2.235.28-1.953 0-3.578-.843-1.625-.86-2.812-2.234-1.188-1.375-1.844-3.11-.64-1.75-.64-3.562zm19.086-9.86h2.344v15.86q0 .765.406 1.203.422.437 1.156.437.297 0 .688-.078.406-.094.75-.234l.375 1.89q-.578.235-1.39.391-.798.172-1.407.172-1.36 0-2.14-.766-.782-.781-.782-2.172v-16.703zm7.561 19.453v-13.921h2.344v13.921H80.7zm0-16.53v-2.923h2.344v2.922H80.7zm12.287 16.796q-1.562 0-2.875-.562-1.312-.579-2.25-1.563-.921-1-1.453-2.312-.515-1.313-.515-2.782 0-1.468.515-2.765.532-1.313 1.47-2.297.952-1 2.25-1.563 1.312-.578 2.89-.578t2.86.594q1.296.578 2.202 1.562.906.97 1.39 2.266.5 1.281.5 2.672 0 .297-.015.531-.015.235-.031.375H88.377q.078 1.031.469 1.89.406.86 1.047 1.47.64.609 1.453.953.812.343 1.719.343.64 0 1.25-.171.625-.172 1.156-.454.531-.296.937-.718.422-.438.641-.97l2.016.563q-.344.766-.954 1.407-.593.64-1.375 1.109-.78.469-1.75.734-.953.266-2 .266zm4.782-8.156q-.094-.985-.5-1.828-.407-.844-1.047-1.422-.625-.594-1.453-.922-.813-.328-1.75-.328-.938 0-1.766.328-.828.328-1.453.937-.625.594-1.016 1.422-.375.828-.453 1.813h9.438zm16.894 7.89h-2.344v-7.78q0-2.235-.687-3.25-.672-1.016-2.063-1.016-.718 0-1.437.28-.719.282-1.36.766-.64.47-1.124 1.141-.47.656-.72 1.469v8.39h-2.343v-13.921h2.14v3q.813-1.47 2.376-2.344 1.562-.89 3.406-.89 1.203 0 2 .437.797.437 1.266 1.234.484.781.687 1.86.203 1.062.203 2.312v8.312zm10.719-.687q-.219.094-.563.25-.343.14-.796.297-.438.14-.954.234-.515.094-1.078.094-1.28 0-2.218-.703-.922-.703-.922-2.203v-9.36h-1.89v-1.843h1.89v-4.625h2.343v4.625h3.125v1.843h-3.125v8.64q.047.767.5 1.126.454.344 1.079.344.687 0 1.25-.22.578-.233.796-.374l.563 1.875z"/><path fill="none" d="M204.126 926.5c0-16.343 13.248-29.592 29.591-29.592h753.07a29.591 29.591 0 0129.591 29.591v118.361c0 16.343-13.248 29.591-29.591 29.591h-753.07c-16.343 0-29.591-13.248-29.591-29.59z"/><path stroke="#f0f" stroke-width="2" stroke-linejoin="round" stroke-linecap="butt" stroke-dasharray="8.0,6.0" d="M204.126 926.5h0c0-16.343 13.248-29.592 29.591-29.592h753.07a29.591 29.591 0 0129.591 29.591v118.361c0 16.343-13.248 29.591-29.591 29.591h-753.07c-16.343 0-29.591-13.248-29.591-29.59z"/><path fill="#2c3e50" d="M224.059 995.28v-18.922h6.562q2.266 0 3.984.75 1.72.734 2.86 2.016 1.14 1.28 1.719 3 .578 1.718.578 3.671 0 2.157-.64 3.907-.642 1.734-1.845 2.984-1.203 1.234-2.89 1.922-1.688.672-3.766.672h-6.562zm13.28-9.485q0-1.609-.452-2.953-.438-1.343-1.313-2.297-.86-.968-2.11-1.515-1.25-.547-2.843-.547h-4.156v14.672h4.156q1.625 0 2.89-.563 1.266-.562 2.094-1.547.844-.984 1.282-2.328.453-1.36.453-2.922zm8.875 9.75q-.984 0-1.844-.328-.859-.343-1.484-.922-.625-.593-.984-1.375-.36-.78-.36-1.718 0-.953.422-1.735.438-.797 1.219-1.36.781-.562 1.86-.874 1.093-.328 2.359-.328 1.015 0 2.047.187 1.046.188 1.859.516v-1.125q0-1.703-.969-2.672-.953-.984-2.719-.984-2.109 0-4.421 1.625l-.782-1.516q2.703-1.812 5.422-1.812 2.75 0 4.281 1.468 1.532 1.47 1.532 4.125v5.688q0 .828.734.844v2.03q-.36.048-.61.079-.234.031-.5.031-.702 0-1.109-.406-.406-.422-.5-1.016l-.047-.984q-.937 1.25-2.359 1.906-1.422.656-3.047.656zm.61-1.765q1.25 0 2.328-.453 1.078-.47 1.64-1.25.516-.5.516-1.032v-2.062q-1.719-.656-3.547-.656-1.766 0-2.875.75-1.11.734-1.11 1.937 0 .594.22 1.094.234.5.64.875.422.375.984.594.563.203 1.204.203zm17.676.812q-.219.094-.563.25-.343.14-.796.297-.438.14-.954.235-.515.093-1.078.093-1.28 0-2.218-.703-.922-.703-.922-2.203v-9.36h-1.89v-1.843h1.89v-4.625h2.343v4.625h3.125v1.844h-3.125v8.64q.047.766.5 1.125.454.344 1.079.344.687 0 1.25-.219.578-.234.796-.375l.563 1.875zm5.758.953q-.984 0-1.844-.328-.86-.343-1.484-.922-.625-.593-.985-1.375-.359-.78-.359-1.718 0-.953.422-1.735.437-.797 1.219-1.36.78-.562 1.86-.874 1.093-.328 2.358-.328 1.016 0 2.047.187 1.047.188 1.86.516v-1.125q0-1.703-.97-2.672-.952-.984-2.718-.984-2.11 0-4.422 1.625l-.78-1.516q2.702-1.812 5.42-1.812 2.75 0 4.282 1.468 1.531 1.47 1.531 4.125v5.688q0 .828.735.844v2.03q-.36.048-.61.079-.234.031-.5.031-.703 0-1.109-.406-.406-.422-.5-1.016l-.047-.984q-.937 1.25-2.36 1.906-1.421.656-3.046.656zm.61-1.765q1.25 0 2.327-.453 1.079-.47 1.641-1.25.516-.5.516-1.032v-2.062q-1.72-.656-3.547-.656-1.766 0-2.875.75-1.11.734-1.11 1.937 0 .594.22 1.094.234.5.64.875.422.375.984.594.563.203 1.203.203zm17.72 1.765q-1.625 0-2.953-.796-1.328-.797-2.11-2.079v2.61h-2.078v-19.453h2.344v8.312q.89-1.36 2.156-2.187 1.282-.828 3-.828 1.438 0 2.578.625 1.141.609 1.954 1.609.812 1 1.25 2.312.453 1.313.453 2.704 0 1.468-.516 2.78-.5 1.298-1.39 2.282-.876.969-2.094 1.547-1.203.562-2.594.562zm-.578-2.03q1.031 0 1.906-.423.89-.422 1.531-1.14.64-.72.985-1.64.343-.923.343-1.938 0-1.016-.328-1.954-.328-.953-.937-1.671-.594-.72-1.438-1.157-.843-.437-1.86-.437-.733 0-1.405.265-.672.266-1.25.704-.563.437-1 1.03-.438.579-.766 1.25v4.032q.14.656.578 1.219.438.562 1.031.984.61.406 1.282.64.687.235 1.328.235zm13.622 2.03q-.984 0-1.844-.328-.859-.343-1.484-.922-.625-.593-.984-1.375-.36-.78-.36-1.718 0-.953.422-1.735.438-.797 1.219-1.36.781-.562 1.86-.874 1.093-.328 2.359-.328 1.015 0 2.047.187 1.046.188 1.859.516v-1.125q0-1.703-.969-2.672-.953-.984-2.719-.984-2.109 0-4.421 1.625l-.782-1.516q2.703-1.812 5.422-1.812 2.75 0 4.281 1.468 1.532 1.47 1.532 4.125v5.688q0 .828.734.844v2.03q-.36.048-.61.079-.234.031-.5.031-.702 0-1.109-.406-.406-.422-.5-1.016l-.047-.984q-.937 1.25-2.359 1.906-1.422.656-3.047.656zm.61-1.765q1.25 0 2.328-.453 1.078-.47 1.64-1.25.516-.5.516-1.032v-2.062q-1.719-.656-3.547-.656-1.766 0-2.875.75-1.11.734-1.11 1.937 0 .594.22 1.094.234.5.64.875.422.375.984.594.563.203 1.204.203zm15.455 1.765q-1.672 0-3.297-.515-1.625-.516-2.797-1.516l1-1.562q1.234.922 2.453 1.39 1.234.47 2.594.47 1.515 0 2.406-.595.89-.61.89-1.703 0-.5-.234-.86-.234-.359-.719-.624-.484-.266-1.234-.469-.734-.219-1.719-.469-1.265-.312-2.172-.61-.906-.296-1.5-.687-.578-.406-.843-.968-.266-.563-.266-1.39 0-1.032.406-1.845.422-.812 1.141-1.36.719-.546 1.687-.827.985-.281 2.094-.281 1.578 0 2.938.515 1.36.5 2.297 1.328l-1.063 1.407q-.89-.766-1.984-1.157-1.094-.39-2.235-.39-1.28 0-2.172.547-.89.546-.89 1.75 0 .484.172.812.172.313.562.547.406.234 1.031.422.625.187 1.516.406 1.375.313 2.406.656 1.032.328 1.703.782.688.453 1.016 1.078.328.61.328 1.484 0 1.938-1.5 3.094-1.484 1.14-4.015 1.14zm14.449 0q-1.563 0-2.875-.562-1.313-.578-2.25-1.563-.922-1-1.453-2.312-.516-1.313-.516-2.781 0-1.47.516-2.766.531-1.312 1.469-2.297.953-1 2.25-1.562 1.312-.578 2.89-.578t2.86.593q1.296.578 2.203 1.563.906.969 1.39 2.265.5 1.282.5 2.672 0 .297-.015.532-.016.234-.032.375h-11.546q.078 1.03.468 1.89.407.86 1.047 1.469.64.61 1.453.953.813.344 1.72.344.64 0 1.25-.172.624-.172 1.155-.453.532-.297.938-.719.422-.437.64-.969l2.016.563q-.344.765-.953 1.406-.594.64-1.375 1.11-.781.468-1.75.734-.953.265-2 .265zm4.781-8.156q-.094-.984-.5-1.828-.406-.844-1.047-1.422-.625-.594-1.453-.922-.812-.328-1.75-.328-.937 0-1.765.328-.829.328-1.454.938-.625.594-1.015 1.422-.375.828-.453 1.812h9.437zm9.692 8.156q-1.672 0-3.297-.515-1.625-.516-2.797-1.516l1-1.562q1.234.922 2.453 1.39 1.234.47 2.594.47 1.515 0 2.406-.595.89-.61.89-1.703 0-.5-.234-.86-.234-.359-.719-.624-.484-.266-1.234-.469-.734-.219-1.719-.469-1.265-.312-2.172-.61-.906-.296-1.5-.687-.578-.406-.843-.968-.266-.563-.266-1.39 0-1.032.406-1.845.422-.812 1.14-1.36.72-.546 1.688-.827.985-.281 2.094-.281 1.578 0 2.938.515 1.359.5 2.297 1.328l-1.063 1.407q-.89-.766-1.984-1.157-1.094-.39-2.235-.39-1.281 0-2.172.547-.89.546-.89 1.75 0 .484.172.812.172.313.562.547.406.234 1.031.422.625.187 1.516.406 1.375.313 2.406.656 1.032.328 1.703.782.688.453 1.016 1.078.328.61.328 1.484 0 1.938-1.5 3.094-1.484 1.14-4.015 1.14z"/><path fill="#d513a5" d="M465.841 947.676c0-11.22 9.096-20.316 20.316-20.316h196.44a20.315 20.315 0 0120.315 20.316v81.259c0 11.22-9.095 20.315-20.315 20.315h-196.44c-11.22 0-20.316-9.096-20.316-20.315z" fill-rule="evenodd"/><path fill="#fff" d="M571.909 982.952q-.313-.375-.844-.719-.532-.344-1.203-.625-.672-.281-1.453-.453-.782-.172-1.641-.172-2.203 0-3.235.828-1.03.813-1.03 2.266 0 .766.296 1.281.297.5.922.86.625.359 1.547.625.937.265 2.219.562 1.468.313 2.656.734 1.187.407 2.015 1.032.844.609 1.282 1.484.453.875.453 2.156 0 1.36-.547 2.36-.531 1-1.453 1.656-.906.656-2.172.969-1.25.297-2.703.297-2.188 0-4.156-.672-1.953-.688-3.563-2l1.156-2.016q.422.453 1.094.906.688.453 1.547.813.875.36 1.875.594 1 .218 2.094.218 2.031 0 3.14-.718 1.125-.72 1.125-2.157 0-.812-.359-1.36-.36-.546-1.063-.937-.687-.406-1.718-.703-1.016-.312-2.328-.64-1.438-.344-2.532-.735-1.093-.406-1.828-.968-.734-.563-1.11-1.36-.359-.797-.359-1.922 0-1.36.5-2.39.5-1.047 1.407-1.766.906-.719 2.156-1.078 1.266-.36 2.734-.36 1.907 0 3.453.594 1.547.578 2.75 1.563l-1.125 1.953zm17.858 13.406q-1.062.781-2.344 1.235-1.28.453-2.718.453-2 0-3.641-.828-1.625-.829-2.813-2.157-1.171-1.343-1.812-3.078-.625-1.734-.625-3.547 0-1.89.672-3.625.687-1.734 1.875-3.062 1.203-1.328 2.844-2.11 1.64-.796 3.562-.796 2 0 3.625.843 1.625.844 2.797 2.203 1.172 1.36 1.812 3.079.641 1.718.641 3.5 0 1.921-.687 3.64-.672 1.719-1.875 3.047l2.375 2.75h-2.344l-1.344-1.547zm-5.031-.484q1.047 0 1.953-.313.906-.328 1.64-.875l-2.53-2.968h2.343l1.453 1.687q.766-1.047 1.188-2.328.437-1.281.437-2.64 0-1.438-.469-2.782-.468-1.344-1.343-2.375-.86-1.047-2.047-1.656-1.188-.625-2.625-.625-1.516 0-2.719.64-1.203.641-2.047 1.704-.828 1.046-1.281 2.39-.453 1.328-.453 2.703 0 1.438.453 2.797.469 1.344 1.328 2.39.86 1.032 2.047 1.641 1.203.61 2.672.61zm12.182 2.031v-18.922h2.406v16.797h10.547v2.125h-12.953z"/><path fill="#d513a5" d="M737.088 947.676c0-11.22 9.095-20.316 20.315-20.316h196.44a20.315 20.315 0 0120.316 20.316v81.259c0 11.22-9.096 20.315-20.316 20.315h-196.44c-11.22 0-20.315-9.096-20.315-20.315z" fill-rule="evenodd"/><path fill="#fff" d="M816.42 983.452v14.453h-2.407v-18.922h1.86l11.734 14.735v-14.72h2.406v18.907h-2.031l-11.563-14.453zM840 998.17q-1.578 0-2.875-.578-1.28-.594-2.203-1.579-.922-.984-1.437-2.28-.5-1.313-.5-2.766 0-1.454.515-2.766.532-1.313 1.454-2.297.921-.984 2.203-1.562 1.297-.594 2.843-.594 1.547 0 2.844.594 1.313.578 2.235 1.562.921.984 1.437 2.297.516 1.312.516 2.766 0 1.453-.5 2.765-.5 1.297-1.438 2.281-.937.985-2.234 1.579-1.281.578-2.86.578zm-4.609-7.172q0 1.094.36 2.031.359.938.984 1.625.625.688 1.469 1.094.843.39 1.796.39.97 0 1.797-.39.844-.406 1.485-1.11.64-.703 1-1.64.359-.953.359-2.047 0-1.078-.36-2.016-.359-.953-1-1.656-.64-.703-1.484-1.094-.828-.406-1.797-.406-.953 0-1.796.422-.844.406-1.47 1.11-.624.702-.984 1.656-.359.937-.359 2.03zm25.796-8.047q-.312-.375-.844-.719-.531-.344-1.203-.625t-1.453-.453q-.781-.172-1.64-.172-2.204 0-3.235.828-1.031.813-1.031 2.266 0 .766.297 1.281.297.5.922.86.625.359 1.546.625.938.265 2.22.562 1.468.313 2.655.734 1.188.407 2.016 1.032.844.609 1.281 1.484.453.875.453 2.156 0 1.36-.546 2.36-.532 1-1.454 1.656-.906.656-2.171.969-1.25.297-2.704.297-2.187 0-4.156-.672-1.953-.688-3.562-2l1.156-2.016q.422.453 1.094.906.687.453 1.547.813.875.36 1.875.594 1 .218 2.093.218 2.032 0 3.14-.718 1.126-.72 1.126-2.157 0-.812-.36-1.36-.359-.546-1.062-.937-.687-.406-1.719-.703-1.015-.312-2.328-.64-1.437-.344-2.531-.735-1.094-.406-1.828-.968-.735-.563-1.11-1.36-.359-.797-.359-1.922 0-1.36.5-2.39.5-1.047 1.406-1.766.907-.719 2.157-1.078 1.265-.36 2.734-.36 1.906 0 3.453.594 1.547.578 2.75 1.563l-1.125 1.953zm17.859 13.406q-1.063.781-2.344 1.235-1.281.453-2.719.453-2 0-3.64-.828-1.626-.829-2.813-2.157-1.172-1.343-1.813-3.078-.625-1.734-.625-3.547 0-1.89.672-3.625.688-1.734 1.875-3.062 1.203-1.328 2.844-2.11 1.64-.796 3.563-.796 2 0 3.625.843 1.625.844 2.796 2.203 1.172 1.36 1.813 3.079.64 1.718.64 3.5 0 1.921-.687 3.64-.672 1.719-1.875 3.047l2.375 2.75h-2.344l-1.343-1.547zm-5.032-.484q1.047 0 1.953-.313.907-.328 1.641-.875l-2.531-2.968h2.344l1.453 1.687q.765-1.047 1.187-2.328.438-1.281.438-2.64 0-1.438-.469-2.782t-1.344-2.375q-.86-1.047-2.047-1.656-1.187-.625-2.625-.625-1.515 0-2.718.64-1.204.641-2.047 1.704-.828 1.046-1.282 2.39-.453 1.328-.453 2.703 0 1.438.453 2.797.47 1.344 1.329 2.39.859 1.032 2.046 1.641 1.204.61 2.672.61zm12.183 2.031v-18.922h2.406v16.797h10.547v2.125h-12.953z"/><path fill="#7b7bdb" d="M481.181 302.31c0-11.22 9.096-20.315 20.316-20.315h196.44a20.315 20.315 0 0120.315 20.315v81.26c0 11.219-9.095 20.315-20.315 20.315h-196.44c-11.22 0-20.316-9.096-20.316-20.316z" fill-rule="evenodd"/><path fill="#fff" d="M560.246 337.587q-.313-.375-.844-.72-.531-.343-1.203-.624-.672-.281-1.453-.453t-1.64-.172q-2.204 0-3.235.828-1.031.812-1.031 2.266 0 .765.297 1.28.296.5.921.86t1.547.625q.938.266 2.219.563 1.469.312 2.656.734 1.188.406 2.016 1.031.844.61 1.281 1.485.453.875.453 2.156 0 1.36-.547 2.36-.53 1-1.453 1.656-.906.656-2.172.968-1.25.297-2.703.297-2.187 0-4.156-.672-1.953-.687-3.562-2l1.156-2.015q.422.453 1.094.906.687.453 1.546.812.875.36 1.875.594 1 .219 2.094.219 2.031 0 3.14-.719 1.126-.719 1.126-2.156 0-.813-.36-1.36-.359-.546-1.062-.937-.688-.406-1.719-.703-1.015-.313-2.328-.64-1.437-.344-2.531-.735-1.094-.406-1.828-.969-.735-.562-1.11-1.36-.36-.796-.36-1.921 0-1.36.5-2.39.5-1.048 1.407-1.766.906-.72 2.156-1.078 1.266-.36 2.735-.36 1.906 0 3.453.594 1.547.578 2.75 1.562l-1.125 1.954zm10.905 15.218q-1.562 0-2.875-.562-1.312-.578-2.25-1.563-.922-1-1.453-2.312-.515-1.313-.515-2.781 0-1.47.515-2.766.531-1.313 1.469-2.297.953-1 2.25-1.562 1.312-.579 2.89-.579 1.579 0 2.86.594 1.297.578 2.203 1.563.906.968 1.39 2.265.5 1.282.5 2.672 0 .297-.015.531-.016.235-.031.375h-11.547q.078 1.032.469 1.891.406.86 1.047 1.469.64.61 1.453.953.812.344 1.718.344.641 0 1.25-.172.625-.172 1.157-.453.531-.297.937-.72.422-.437.64-.968l2.016.563q-.343.765-.953 1.406-.593.64-1.375 1.11-.78.468-1.75.734-.953.265-2 .265zm4.782-8.156q-.094-.984-.5-1.828-.407-.844-1.047-1.422-.625-.594-1.453-.922-.813-.328-1.75-.328-.938 0-1.766.328-.828.328-1.453.938-.625.593-1.016 1.422-.375.828-.453 1.812h9.438zm12.175-3.969q-1.765.047-3.11.907-1.343.843-1.905 2.375v8.578h-2.344v-13.922h2.187v3.234q.72-1.437 1.891-2.328 1.172-.906 2.516-1h.437q.188 0 .328.016v2.14zm6.348 11.86l-5.5-13.922h2.438l4.39 11.875 4.422-11.875h2.25l-5.5 13.922h-2.5zm10.31 0v-13.922h2.344v13.922h-2.344zm0-16.532v-2.921h2.344v2.921h-2.344zm5.193 9.547q0-1.468.5-2.765.516-1.313 1.454-2.282.937-.984 2.218-1.546 1.297-.579 2.907-.579 2.078 0 3.578.922t2.281 2.469l-2.297.719q-.531-.985-1.5-1.531-.953-.547-2.125-.547-.953 0-1.812.39-.86.375-1.47 1.078-.609.688-.968 1.625-.36.922-.36 2.047 0 1.094.376 2.063.375.953 1 1.656t1.453 1.11q.844.39 1.812.39.61 0 1.203-.172.61-.172 1.094-.453.5-.297.875-.687.375-.391.531-.844l2.297.703q-.328.766-.906 1.406-.562.64-1.344 1.094-.765.453-1.718.719-.938.265-1.985.265-1.562 0-2.875-.578-1.312-.594-2.25-1.578-.922-.984-1.453-2.297-.516-1.328-.516-2.797zm21.728 7.25q-1.562 0-2.875-.562-1.312-.578-2.25-1.563-.922-1-1.453-2.312-.515-1.313-.515-2.781 0-1.47.515-2.766.531-1.313 1.469-2.297.953-1 2.25-1.562 1.312-.579 2.89-.579 1.579 0 2.86.594 1.297.578 2.203 1.563.906.968 1.39 2.265.5 1.282.5 2.672 0 .297-.015.531-.016.235-.031.375h-11.547q.078 1.032.469 1.891.406.86 1.047 1.469.64.61 1.453.953.812.344 1.718.344.641 0 1.25-.172.625-.172 1.157-.453.531-.297.937-.72.422-.437.64-.968l2.016.563q-.343.765-.953 1.406-.593.64-1.375 1.11-.78.468-1.75.734-.953.265-2 .265zm4.782-8.156q-.094-.984-.5-1.828-.407-.844-1.047-1.422-.625-.594-1.453-.922-.813-.328-1.75-.328-.938 0-1.766.328-.828.328-1.453.938-.625.593-1.016 1.422-.375.828-.453 1.812h9.438zm9.69 8.156q-1.671 0-3.296-.515-1.625-.516-2.797-1.516l1-1.562q1.235.921 2.453 1.39 1.235.469 2.594.469 1.516 0 2.406-.594.89-.61.89-1.703 0-.5-.233-.86-.235-.359-.72-.624-.484-.266-1.234-.47-.734-.218-1.718-.468-1.266-.312-2.172-.61-.906-.296-1.5-.687-.578-.406-.844-.968-.266-.563-.266-1.391 0-1.031.407-1.844.422-.812 1.14-1.36.719-.546 1.688-.827.984-.282 2.094-.282 1.578 0 2.937.516 1.36.5 2.297 1.328l-1.063 1.406q-.89-.765-1.984-1.156-1.094-.39-2.234-.39-1.282 0-2.172.546-.89.547-.89 1.75 0 .485.171.813.172.312.563.547.406.234 1.03.422.626.187 1.516.406 1.375.312 2.407.656 1.03.328 1.703.781.687.454 1.015 1.079.329.609.329 1.484 0 1.937-1.5 3.094-1.485 1.14-4.016 1.14z"/><path fill="#7b7bdb" d="M758.236 302.31c0-11.22 9.096-20.315 20.316-20.315H994.74a20.315 20.315 0 0120.315 20.315v81.26c0 11.219-9.095 20.315-20.315 20.315H778.552c-11.22 0-20.316-9.096-20.316-20.316z" fill-rule="evenodd"/><path fill="#fff" d="M860.012 350.415v2.125h-12.844v-18.922h12.61v2.125h-10.204v6.14h8.875v2h-8.875v6.532h10.438zm6.54 2.125l-5.5-13.922h2.437l4.39 11.875 4.422-11.875h2.25l-5.5 13.922h-2.5zm15.985.265q-1.562 0-2.875-.562-1.312-.578-2.25-1.563-.922-1-1.453-2.312-.516-1.313-.516-2.781 0-1.47.516-2.766.531-1.313 1.469-2.297.953-1 2.25-1.562 1.312-.579 2.89-.579 1.579 0 2.86.594 1.297.578 2.203 1.563.906.968 1.39 2.265.5 1.282.5 2.672 0 .297-.015.531-.016.235-.031.375h-11.547q.078 1.032.469 1.891.406.86 1.046 1.469.641.61 1.454.953.812.344 1.718.344.64 0 1.25-.172.625-.172 1.157-.453.53-.297.937-.72.422-.437.64-.968l2.016.563q-.343.765-.953 1.406-.594.64-1.375 1.11-.781.468-1.75.734-.953.265-2 .265zm4.781-8.156q-.093-.984-.5-1.828-.406-.844-1.046-1.422-.625-.594-1.454-.922-.812-.328-1.75-.328-.937 0-1.765.328-.828.328-1.453.938-.625.593-1.016 1.422-.375.828-.453 1.812h9.437zm16.895 7.89h-2.344v-7.78q0-2.235-.687-3.25-.672-1.016-2.063-1.016-.719 0-1.437.281-.72.281-1.36.766-.64.468-1.125 1.14-.469.657-.719 1.469v8.39h-2.343v-13.921h2.14v3q.813-1.469 2.375-2.344 1.563-.89 3.407-.89 1.203 0 2 .437.796.437 1.265 1.234.485.782.688 1.86.203 1.062.203 2.312v8.313zm10.719-.687q-.22.094-.563.25-.344.14-.797.297-.437.14-.953.234t-1.078.094q-1.281 0-2.219-.703-.922-.703-.922-2.203v-9.36h-1.89v-1.843h1.89v-4.625h2.344v4.625h3.125v1.844h-3.125v8.64q.047.766.5 1.125.453.344 1.078.344.688 0 1.25-.219.578-.234.797-.375l.563 1.875zm7.054.953q-1.671 0-3.296-.515-1.625-.516-2.797-1.516l1-1.562q1.234.921 2.453 1.39 1.234.469 2.594.469 1.515 0 2.406-.594.89-.61.89-1.703 0-.5-.234-.86-.234-.359-.719-.624-.484-.266-1.234-.47-.734-.218-1.719-.468-1.265-.312-2.172-.61-.906-.296-1.5-.687-.578-.406-.843-.968-.266-.563-.266-1.391 0-1.031.406-1.844.422-.812 1.14-1.36.72-.546 1.688-.827.985-.282 2.094-.282 1.578 0 2.938.516 1.359.5 2.296 1.328l-1.062 1.406q-.89-.765-1.984-1.156-1.094-.39-2.235-.39-1.281 0-2.172.546-.89.547-.89 1.75 0 .485.172.813.171.312.562.547.406.234 1.031.422.625.187 1.516.406 1.375.312 2.406.656 1.031.328 1.703.781.688.454 1.016 1.079.328.609.328 1.484 0 1.937-1.5 3.094-1.484 1.14-4.016 1.14z"/><path fill="#3cf" d="M204.787 92.37c0-11.22 9.096-20.315 20.316-20.315h196.44a20.315 20.315 0 0120.315 20.315v81.26c0 11.22-9.095 20.315-20.315 20.315h-196.44c-11.22 0-20.316-9.096-20.316-20.315z" fill-rule="evenodd"/><path fill="#fff" d="M253.164 142.6v-18.922h8.11q1.25 0 2.296.516 1.063.515 1.813 1.39.765.86 1.187 1.938.422 1.078.422 2.203 0 .984-.281 1.906-.266.922-.797 1.672-.516.734-1.25 1.281-.734.532-1.64.766l4.593 7.25h-2.719l-4.328-6.797h-5v6.797h-2.406zm2.406-8.938h5.719q.75 0 1.344-.312.609-.313 1.03-.86.423-.546.657-1.265.25-.734.25-1.5 0-.797-.281-1.5-.281-.719-.75-1.266-.453-.547-1.094-.843-.625-.313-1.312-.313h-5.563v7.86zm27.95 6.813v2.125h-12.843v-18.922h12.61v2.125h-10.204v6.14h8.875v2h-8.875v6.532h10.438zm14.393-12.828q-.312-.375-.843-.719-.532-.344-1.204-.625-.671-.281-1.453-.453-.78-.172-1.64-.172-2.203 0-3.235.828-1.03.813-1.03 2.266 0 .765.296 1.281.297.5.922.86.625.359 1.547.624.937.266 2.218.563 1.47.312 2.657.734 1.187.407 2.015 1.032.844.609 1.282 1.484.453.875.453 2.156 0 1.36-.547 2.36-.531 1-1.453 1.656-.907.656-2.172.969-1.25.296-2.703.296-2.188 0-4.157-.671-1.953-.688-3.562-2l1.156-2.016q.422.453 1.094.906.687.453 1.547.813.875.36 1.875.593 1 .22 2.094.22 2.03 0 3.14-.72 1.125-.718 1.125-2.156 0-.812-.36-1.36-.359-.546-1.062-.937-.687-.406-1.718-.703-1.016-.312-2.329-.64-1.437-.344-2.53-.735-1.095-.406-1.829-.969-.734-.562-1.11-1.359-.359-.797-.359-1.922 0-1.36.5-2.39.5-1.047 1.407-1.766.906-.719 2.156-1.078 1.265-.36 2.734-.36 1.906 0 3.453.594 1.547.578 2.75 1.563l-1.125 1.953zm18.765-1.844h-6.515V142.6h-2.407v-16.797h-6.531v-2.125h15.453v2.125zm7.452 7.203q0-1.703.593-3.39.594-1.704 1.75-3.047 1.172-1.344 2.844-2.172 1.688-.828 3.813-.828 2.53 0 4.343 1.156 1.813 1.14 2.704 2.969l-1.907 1.234q-.422-.906-1.031-1.516-.594-.625-1.297-.984-.703-.375-1.453-.531-.75-.172-1.469-.172-1.562 0-2.781.656t-2.047 1.703q-.812 1.047-1.234 2.375-.406 1.313-.406 2.657 0 1.484.484 2.843.5 1.344 1.375 2.391.875 1.031 2.078 1.64 1.203.61 2.61.61.75 0 1.53-.188.798-.187 1.516-.593.719-.422 1.344-1.047.625-.625 1.031-1.5l2 1.094q-.453 1.062-1.265 1.875-.813.812-1.844 1.375-1.031.562-2.172.859-1.14.281-2.234.281-1.953 0-3.578-.844-1.625-.859-2.813-2.234-1.187-1.375-1.844-3.11-.64-1.75-.64-3.562zm19.085-9.86h2.344v15.86q0 .766.406 1.203.422.438 1.157.438.297 0 .687-.078.406-.094.75-.235l.375 1.891q-.578.234-1.39.39-.797.172-1.407.172-1.36 0-2.14-.765-.782-.781-.782-2.172v-16.703zm7.562 19.454v-13.922h2.343V142.6h-2.343zm0-16.531v-2.922h2.343v2.922h-2.343zm12.287 16.797q-1.563 0-2.875-.563-1.313-.578-2.25-1.562-.922-1-1.453-2.313-.516-1.312-.516-2.781t.516-2.766q.53-1.312 1.468-2.297.954-1 2.25-1.562 1.313-.578 2.891-.578t2.86.593q1.296.579 2.203 1.563.906.969 1.39 2.266.5 1.28.5 2.671 0 .297-.015.532-.016.234-.032.375h-11.547q.079 1.031.47 1.89.405.86 1.046 1.47.64.608 1.453.952.813.344 1.719.344.64 0 1.25-.172.625-.172 1.156-.453.531-.297.938-.719.422-.437.64-.969l2.016.563q-.344.766-.953 1.406-.594.64-1.375 1.11-.781.468-1.75.734-.953.266-2 .266zm4.781-8.157q-.094-.984-.5-1.828-.406-.844-1.047-1.422-.625-.593-1.453-.922-.812-.328-1.75-.328-.937 0-1.766.328-.828.329-1.453.938-.625.594-1.015 1.422-.375.828-.453 1.812h9.437zm16.894 7.891h-2.343v-7.781q0-2.235-.688-3.25-.672-1.016-2.062-1.016-.72 0-1.438.281-.719.282-1.36.766-.64.469-1.124 1.14-.469.657-.719 1.47v8.39h-2.344v-13.922h2.14v3q.813-1.469 2.376-2.344 1.562-.89 3.406-.89 1.203 0 2 .437.797.438 1.266 1.235.484.78.687 1.859.203 1.062.203 2.312v8.313zm10.72-.688q-.22.094-.563.25-.344.141-.797.297-.438.141-.953.235-.516.093-1.078.093-1.282 0-2.22-.703-.921-.703-.921-2.203v-9.36h-1.89v-1.843h1.89v-4.625h2.344v4.625h3.125v1.844h-3.125v8.64q.047.766.5 1.125.453.344 1.078.344.687 0 1.25-.219.578-.234.797-.375l.562 1.875z"/><path fill="#3cf" d="M481.843 92.37c0-11.22 9.095-20.315 20.315-20.315h196.44a20.315 20.315 0 0120.316 20.315v81.26c0 11.22-9.096 20.315-20.316 20.315h-196.44c-11.22 0-20.315-9.096-20.315-20.315z" fill-rule="evenodd"/><path fill="#fff" d="M539.05 107.787h2.265l2.5 6.579 2.531-6.579h2.266l-3.281 8.235 3.25 7.812 6.406-16.156h2.61l-7.922 18.922h-2.079l-3.75-8.938-3.796 8.938h-2.079l-7.89-18.922h2.594l6.421 16.156 3.22-7.812-3.266-8.235zm24.992 19.079q-1.562 0-2.875-.563-1.312-.578-2.25-1.562-.922-1-1.453-2.313-.515-1.312-.515-2.781t.515-2.766q.531-1.312 1.469-2.297.953-1 2.25-1.562 1.312-.578 2.89-.578 1.579 0 2.86.593 1.297.579 2.203 1.563.906.969 1.39 2.266.5 1.28.5 2.671 0 .297-.015.532-.016.234-.031.375h-11.547q.078 1.031.469 1.89.406.86 1.047 1.47.64.608 1.453.952.812.344 1.718.344.641 0 1.25-.172.625-.172 1.157-.453.53-.297.937-.719.422-.437.64-.969l2.016.563q-.343.766-.953 1.406-.593.64-1.375 1.11-.781.468-1.75.734-.953.266-2 .266zm4.782-8.157q-.094-.984-.5-1.828-.407-.844-1.047-1.422-.625-.593-1.453-.922-.813-.328-1.75-.328-.938 0-1.766.328-.828.329-1.453.938-.625.594-1.016 1.422-.375.828-.453 1.812h9.438zm11.956 8.157q-1.625 0-2.953-.797-1.328-.797-2.109-2.078v2.609h-2.078v-19.453h2.344v8.312q.89-1.359 2.156-2.187 1.281-.828 3-.828 1.437 0 2.578.625 1.14.61 1.953 1.61.813 1 1.25 2.312.453 1.312.453 2.703 0 1.468-.515 2.781-.5 1.297-1.391 2.281-.875.969-2.094 1.547-1.203.563-2.594.563zm-.578-2.032q1.032 0 1.907-.422.89-.421 1.53-1.14.641-.719.985-1.64.344-.923.344-1.938 0-1.016-.328-1.953-.328-.954-.938-1.672-.593-.719-1.437-1.157-.844-.437-1.86-.437-.734 0-1.406.266-.672.265-1.25.703-.562.437-1 1.031-.437.578-.765 1.25v4.031q.14.656.578 1.219.437.563 1.031.984.61.407 1.281.641.688.234 1.328.234zm14.92 2.032q-1.672 0-3.297-.516-1.625-.516-2.797-1.516l1-1.562q1.234.922 2.453 1.39 1.234.47 2.594.47 1.515 0 2.406-.595.89-.609.89-1.703 0-.5-.234-.859-.234-.36-.719-.625-.484-.266-1.234-.469-.734-.219-1.719-.469-1.265-.312-2.172-.609-.906-.297-1.5-.687-.578-.407-.843-.97-.266-.562-.266-1.39 0-1.031.406-1.844.422-.812 1.141-1.359.719-.547 1.687-.828.985-.281 2.094-.281 1.578 0 2.938.515 1.36.5 2.297 1.328l-1.063 1.407q-.89-.766-1.984-1.157-1.094-.39-2.235-.39-1.28 0-2.172.547-.89.547-.89 1.75 0 .484.172.812.172.313.562.547.406.234 1.031.422.625.188 1.516.406 1.375.313 2.406.656 1.032.329 1.703.782.688.453 1.016 1.078.328.61.328 1.484 0 1.938-1.5 3.094-1.484 1.14-4.015 1.14zm14.37 0q-1.577 0-2.874-.579-1.281-.593-2.203-1.578-.922-.984-1.438-2.28-.5-1.313-.5-2.767 0-1.453.516-2.765.531-1.313 1.453-2.297.922-.984 2.203-1.563 1.297-.593 2.844-.593t2.844.593q1.312.579 2.234 1.563.922.984 1.437 2.297.516 1.312.516 2.765 0 1.454-.5 2.766-.5 1.297-1.437 2.281-.938.985-2.235 1.578-1.281.579-2.86.579zm-4.609-7.172q0 1.093.36 2.031.36.938.984 1.625.625.688 1.469 1.094.844.39 1.797.39.969 0 1.797-.39.843-.407 1.484-1.11.64-.703 1-1.64.36-.953.36-2.047 0-1.078-.36-2.016-.36-.953-1-1.656t-1.484-1.094q-.828-.406-1.797-.406-.953 0-1.797.422-.844.406-1.469 1.11-.625.702-.984 1.655-.36.938-.36 2.032zm13.561-.078q0-1.47.5-2.766.516-1.313 1.453-2.281.938-.985 2.22-1.547 1.296-.578 2.905-.578 2.079 0 3.579.922 1.5.921 2.28 2.468l-2.296.72q-.531-.985-1.5-1.532-.953-.547-2.125-.547-.953 0-1.813.39-.859.376-1.468 1.079-.61.687-.97 1.625-.358.922-.358 2.047 0 1.093.375 2.062.375.953 1 1.656t1.453 1.11q.843.39 1.812.39.61 0 1.203-.172.61-.171 1.094-.453.5-.297.875-.687.375-.39.531-.844l2.297.703q-.328.766-.906 1.406-.563.641-1.344 1.094-.765.453-1.719.719-.937.266-1.984.266-1.562 0-2.875-.579-1.312-.593-2.25-1.578-.922-.984-1.453-2.297-.516-1.328-.516-2.796zm25.518 6.984l-4.797-6.797-2.672 2.5v4.297h-2.344v-19.453h2.344v12.797l7.14-7.235h2.594l-5.546 5.766 5.812 8.125h-2.531zm9.991.266q-1.562 0-2.875-.563-1.312-.578-2.25-1.562-.922-1-1.453-2.313-.516-1.312-.516-2.781t.516-2.766q.531-1.312 1.469-2.297.953-1 2.25-1.562 1.312-.578 2.89-.578 1.579 0 2.86.593 1.297.579 2.203 1.563.906.969 1.39 2.266.5 1.28.5 2.671 0 .297-.015.532-.016.234-.031.375h-11.547q.078 1.031.469 1.89.406.86 1.046 1.47.641.608 1.454.952.812.344 1.718.344.64 0 1.25-.172.625-.172 1.157-.453.53-.297.937-.719.422-.437.64-.969l2.016.563q-.343.766-.953 1.406-.594.64-1.375 1.11-.781.468-1.75.734-.953.266-2 .266zm4.781-8.157q-.093-.984-.5-1.828-.406-.844-1.046-1.422-.625-.593-1.454-.922-.812-.328-1.75-.328-.937 0-1.765.328-.828.329-1.453.938-.625.594-1.016 1.422-.375.828-.453 1.812h9.437zm11.887 7.203q-.22.094-.563.25-.344.141-.797.297-.437.141-.953.235-.516.093-1.078.093-1.281 0-2.219-.703-.922-.703-.922-2.203v-9.36h-1.89v-1.843h1.89v-4.625h2.344v4.625h3.125v1.844h-3.125v8.64q.047.766.5 1.125.453.344 1.078.344.688 0 1.25-.219.578-.234.797-.375l.563 1.875zM565.093 149.006q0-1.703.593-3.39.594-1.704 1.75-3.047 1.172-1.344 2.844-2.172 1.688-.828 3.813-.828 2.53 0 4.343 1.156 1.813 1.14 2.704 2.969l-1.907 1.234q-.422-.906-1.031-1.516-.594-.625-1.297-.984-.703-.375-1.453-.531-.75-.172-1.469-.172-1.562 0-2.781.656t-2.047 1.703q-.812 1.047-1.234 2.375-.406 1.313-.406 2.657 0 1.484.484 2.843.5 1.344 1.375 2.391.875 1.031 2.078 1.64 1.203.61 2.61.61.75 0 1.53-.188.798-.187 1.516-.593.719-.422 1.344-1.047.625-.625 1.031-1.5l2 1.094q-.453 1.062-1.265 1.875-.813.812-1.844 1.375-1.031.562-2.172.859-1.14.281-2.234.281-1.953 0-3.578-.844-1.625-.859-2.813-2.234-1.187-1.375-1.844-3.11-.64-1.75-.64-3.562zm19.085-9.86h2.344v15.86q0 .766.406 1.203.422.438 1.157.438.297 0 .687-.078.406-.094.75-.235l.375 1.891q-.578.234-1.39.39-.797.172-1.407.172-1.36 0-2.14-.765-.782-.781-.782-2.172v-16.703zm7.562 19.454v-13.922h2.343V158.6h-2.343zm0-16.531v-2.922h2.343v2.922h-2.343zm12.287 16.797q-1.563 0-2.875-.563-1.313-.578-2.25-1.562-.922-1-1.453-2.313-.516-1.312-.516-2.781t.516-2.766q.53-1.312 1.468-2.297.953-1 2.25-1.562 1.313-.578 2.891-.578t2.86.593q1.296.579 2.202 1.563.907.969 1.391 2.266.5 1.28.5 2.671 0 .297-.016.532-.015.234-.03.375h-11.548q.078 1.031.47 1.89.405.86 1.046 1.47.64.608 1.453.952.813.344 1.719.344.64 0 1.25-.172.625-.172 1.156-.453.531-.297.938-.719.421-.437.64-.969l2.016.563q-.344.766-.953 1.406-.594.64-1.375 1.11-.782.468-1.75.734-.953.266-2 .266zm4.781-8.157q-.094-.984-.5-1.828-.406-.844-1.047-1.422-.625-.593-1.453-.922-.813-.328-1.75-.328-.938 0-1.766.328-.828.329-1.453.938-.625.594-1.015 1.422-.375.828-.454 1.812h9.438zm16.894 7.891h-2.343v-7.781q0-2.235-.688-3.25-.672-1.016-2.062-1.016-.72 0-1.438.281-.719.282-1.36.766-.64.469-1.124 1.14-.469.657-.719 1.47v8.39h-2.344v-13.922h2.14v3q.813-1.469 2.376-2.344 1.562-.89 3.406-.89 1.203 0 2 .437.797.438 1.266 1.235.484.78.687 1.859.203 1.062.203 2.312v8.313zm10.72-.688q-.22.094-.563.25-.344.141-.797.297-.438.141-.953.235-.516.093-1.078.093-1.282 0-2.22-.703-.921-.703-.921-2.203v-9.36H628v-1.843h1.89v-4.625h2.344v4.625h3.125v1.844h-3.125v8.64q.047.766.5 1.125.453.344 1.078.344.687 0 1.25-.219.578-.234.797-.375l.562 1.875z"/><path fill="#3cf" d="M758.898 92.37c0-11.22 9.095-20.315 20.315-20.315h216.188a20.315 20.315 0 0120.316 20.315v81.26c0 11.22-9.096 20.315-20.316 20.315H779.213c-11.22 0-20.315-9.096-20.315-20.315z" fill-rule="evenodd"/><path fill="#fff" d="M804.148 107.678h2.015l7.735 18.922h-2.563l-2.234-5.547h-7.953l-2.203 5.547h-2.563l7.766-18.922zm4.422 11.516l-3.422-8.75-3.516 8.75h6.938zm11.487 7.672q-2.188 0-3.313-1.47-1.109-1.468-1.109-4.374v-8.344h2.344v7.89q0 4.266 2.953 4.266 1.437 0 2.703-.906 1.266-.922 1.89-2.531v-8.719h2.344v11.047q0 .828.735.844v2.031q-.39.047-.625.062-.219.016-.438.016-.687 0-1.156-.406-.469-.422-.5-1.031l-.047-1.625q-.937 1.578-2.453 2.421-1.516.829-3.328.829zm18.926-.954q-.218.094-.562.25-.344.141-.797.297-.437.141-.953.235-.516.093-1.078.093-1.281 0-2.219-.703-.922-.703-.922-2.203v-9.36h-1.89v-1.843h1.89v-4.625h2.344v4.625h3.125v1.844h-3.125v8.64q.047.766.5 1.125.453.344 1.078.344.688 0 1.25-.219.578-.234.797-.375l.562 1.875zm14.258.688h-2.343v-7.781q0-2.157-.75-3.203-.75-1.063-2.188-1.063-.687 0-1.39.281-.688.282-1.297.766-.594.469-1.063 1.14-.453.657-.703 1.47v8.39h-2.344v-19.453h2.344v8.531q.828-1.531 2.234-2.375 1.422-.86 3.094-.86 1.235 0 2.078.454.86.453 1.36 1.234.515.766.734 1.844.234 1.078.234 2.312v8.313zm9.806.266q-1.563 0-2.875-.563-1.313-.578-2.25-1.562-.922-1-1.453-2.313-.516-1.312-.516-2.781t.516-2.766q.53-1.312 1.468-2.297.953-1 2.25-1.562 1.313-.578 2.89-.578 1.58 0 2.86.593 1.297.579 2.203 1.563.907.969 1.391 2.266.5 1.28.5 2.671 0 .297-.016.532-.015.234-.03.375h-11.548q.078 1.031.47 1.89.405.86 1.046 1.47.64.608 1.453.952.813.344 1.719.344.64 0 1.25-.172.625-.172 1.156-.453.531-.297.938-.719.421-.437.64-.969l2.016.563q-.344.766-.953 1.406-.594.64-1.375 1.11-.782.468-1.75.734-.953.266-2 .266zm4.78-8.157q-.093-.984-.5-1.828-.405-.844-1.046-1.422-.625-.593-1.453-.922-.813-.328-1.75-.328-.938 0-1.766.328-.828.329-1.453.938-.625.594-1.015 1.422-.375.828-.454 1.812h9.438zm16.895 7.891h-2.343v-7.781q0-2.235-.688-3.25-.672-1.016-2.062-1.016-.72 0-1.438.281-.719.282-1.36.766-.64.469-1.124 1.14-.469.657-.719 1.47v8.39h-2.344v-13.922h2.14v3q.813-1.469 2.376-2.344 1.562-.89 3.406-.89 1.203 0 2 .437.797.438 1.266 1.235.484.78.687 1.859.203 1.062.203 2.312v8.313zm10.72-.688q-.22.094-.563.25-.344.141-.797.297-.438.141-.953.235-.516.093-1.078.093-1.282 0-2.22-.703-.921-.703-.921-2.203v-9.36h-1.89v-1.843h1.89v-4.625h2.344v4.625h3.125v1.844h-3.125v8.64q.047.766.5 1.125.453.344 1.078.344.687 0 1.25-.219.578-.234.797-.375l.562 1.875zm2.179.688v-13.922h2.344V126.6h-2.344zm0-16.531v-2.922h2.344v2.922h-2.344zm5.193 9.547q0-1.47.5-2.766.516-1.313 1.454-2.281.937-.985 2.218-1.547 1.297-.578 2.907-.578 2.078 0 3.578.922 1.5.921 2.28 2.468l-2.296.72q-.531-.985-1.5-1.532-.953-.547-2.125-.547-.953 0-1.812.39-.86.376-1.47 1.079-.609.687-.968 1.625-.36.922-.36 2.047 0 1.093.376 2.062.375.953 1 1.656t1.453 1.11q.844.39 1.812.39.61 0 1.203-.172.61-.171 1.094-.453.5-.297.875-.687.375-.39.531-.844l2.297.703q-.328.766-.906 1.406-.562.641-1.344 1.094-.765.453-1.718.719-.938.266-1.985.266-1.562 0-2.875-.579-1.312-.593-2.25-1.578-.922-.984-1.453-2.297-.516-1.328-.516-2.796zm19.284 7.25q-.985 0-1.844-.329-.86-.343-1.485-.921-.625-.594-.984-1.375-.36-.782-.36-1.72 0-.952.423-1.734.437-.796 1.218-1.359.782-.562 1.86-.875 1.093-.328 2.359-.328 1.016 0 2.047.187 1.047.188 1.86.516v-1.125q0-1.703-.97-2.672-.953-.984-2.718-.984-2.11 0-4.422 1.625l-.781-1.516q2.703-1.812 5.422-1.812 2.75 0 4.28 1.468 1.532 1.47 1.532 4.125v5.688q0 .828.734.844v2.031q-.359.047-.609.078-.234.031-.5.031-.703 0-1.11-.406-.406-.422-.5-1.016l-.046-.984q-.938 1.25-2.36 1.906-1.421.657-3.046.657zm.609-1.766q1.25 0 2.328-.453 1.078-.469 1.64-1.25.516-.5.516-1.031v-2.063q-1.718-.656-3.547-.656-1.765 0-2.875.75-1.109.734-1.109 1.937 0 .594.219 1.094.234.5.64.875.422.375.985.594.562.203 1.203.203zm17.676.812q-.218.094-.562.25-.344.141-.797.297-.438.141-.953.235-.516.093-1.078.093-1.282 0-2.219-.703-.922-.703-.922-2.203v-9.36h-1.89v-1.843h1.89v-4.625h2.344v4.625h3.125v1.844h-3.125v8.64q.047.766.5 1.125.453.344 1.078.344.687 0 1.25-.219.578-.234.797-.375l.562 1.875zm2.18.688v-13.922h2.344V126.6h-2.344zm0-16.531v-2.922h2.344v2.922h-2.344zm12.21 16.797q-1.579 0-2.876-.579-1.281-.593-2.203-1.578-.922-.984-1.437-2.28-.5-1.313-.5-2.767 0-1.453.515-2.765.531-1.313 1.453-2.297.922-.984 2.203-1.563 1.297-.593 2.844-.593t2.844.593q1.312.579 2.234 1.563.922.984 1.438 2.297.515 1.312.515 2.765 0 1.454-.5 2.766-.5 1.297-1.437 2.281-.938.985-2.234 1.578-1.282.579-2.86.579zm-4.61-7.172q0 1.093.36 2.031.359.937.984 1.625.625.687 1.468 1.094.844.39 1.797.39.969 0 1.797-.39.844-.407 1.484-1.11.641-.703 1-1.64.36-.953.36-2.047 0-1.078-.36-2.016-.359-.953-1-1.656-.64-.703-1.484-1.094-.828-.406-1.797-.406-.953 0-1.797.422-.843.406-1.468 1.11-.625.702-.985 1.655-.36.938-.36 2.032zm26.576 6.906h-2.343v-7.781q0-2.235-.688-3.25-.672-1.016-2.062-1.016-.72 0-1.438.281-.719.282-1.36.766-.64.469-1.124 1.14-.47.657-.72 1.47v8.39h-2.343v-13.922h2.14v3q.813-1.469 2.376-2.344 1.562-.89 3.406-.89 1.203 0 2 .437.797.438 1.266 1.235.484.78.687 1.859.203 1.062.203 2.312v8.313zM852.022 149.006q0-1.703.593-3.39.594-1.704 1.75-3.047 1.172-1.344 2.844-2.172 1.688-.828 3.813-.828 2.53 0 4.343 1.156 1.813 1.14 2.704 2.969l-1.907 1.234q-.422-.906-1.031-1.516-.594-.625-1.297-.984-.703-.375-1.453-.531-.75-.172-1.469-.172-1.562 0-2.781.656t-2.047 1.703q-.812 1.047-1.234 2.375-.406 1.313-.406 2.657 0 1.484.484 2.843.5 1.344 1.375 2.391.875 1.031 2.078 1.64 1.203.61 2.61.61.75 0 1.53-.188.798-.187 1.516-.593.719-.422 1.344-1.047.625-.625 1.031-1.5l2 1.094q-.453 1.062-1.265 1.875-.813.812-1.844 1.375-1.031.562-2.172.859-1.14.281-2.234.281-1.953 0-3.578-.844-1.625-.859-2.813-2.234-1.187-1.375-1.844-3.11-.64-1.75-.64-3.562zm19.085-9.86h2.344v15.86q0 .766.406 1.203.422.438 1.157.438.297 0 .687-.078.406-.094.75-.235l.375 1.891q-.578.234-1.39.39-.797.172-1.407.172-1.36 0-2.14-.765-.782-.781-.782-2.172v-16.703zm7.562 19.454v-13.922h2.343V158.6h-2.343zm0-16.531v-2.922h2.343v2.922h-2.343zm12.287 16.797q-1.563 0-2.875-.563-1.313-.578-2.25-1.562-.922-1-1.453-2.313-.516-1.312-.516-2.781t.516-2.766q.53-1.312 1.468-2.297.954-1 2.25-1.562 1.313-.578 2.891-.578t2.86.593q1.296.579 2.202 1.563.907.969 1.391 2.266.5 1.28.5 2.671 0 .297-.016.532-.015.234-.03.375h-11.548q.079 1.031.47 1.89.405.86 1.046 1.47.64.608 1.453.952.813.344 1.719.344.64 0 1.25-.172.625-.172 1.156-.453.531-.297.938-.719.421-.437.64-.969l2.016.563q-.344.766-.953 1.406-.594.64-1.375 1.11-.782.468-1.75.734-.953.266-2 .266zm4.78-8.157q-.093-.984-.5-1.828-.405-.844-1.046-1.422-.625-.593-1.453-.922-.812-.328-1.75-.328-.937 0-1.766.328-.828.329-1.453.938-.625.594-1.015 1.422-.375.828-.453 1.812h9.437zm16.895 7.891h-2.343v-7.781q0-2.235-.688-3.25-.672-1.016-2.062-1.016-.72 0-1.438.281-.719.282-1.36.766-.64.469-1.124 1.14-.469.657-.719 1.47v8.39h-2.344v-13.922h2.14v3q.813-1.469 2.376-2.344 1.562-.89 3.406-.89 1.203 0 2 .437.797.438 1.266 1.235.484.78.687 1.859.203 1.062.203 2.312v8.313zm10.72-.688q-.22.094-.563.25-.344.141-.797.297-.438.141-.953.235-.516.093-1.078.093-1.282 0-2.22-.703-.921-.703-.921-2.203v-9.36h-1.89v-1.843h1.89v-4.625h2.344v4.625h3.125v1.844h-3.125v8.64q.047.766.5 1.125.453.344 1.078.344.687 0 1.25-.219.578-.234.797-.375l.562 1.875z"/></g></svg>